%TF.GenerationSoftware,KiCad,Pcbnew,9.0.6*%
%TF.CreationDate,2026-02-10T10:36:59-08:00*%
%TF.ProjectId,Final Project - Sensor Device,46696e61-6c20-4507-926f-6a656374202d,V1*%
%TF.SameCoordinates,Original*%
%TF.FileFunction,Paste,Top*%
%TF.FilePolarity,Positive*%
%FSLAX46Y46*%
G04 Gerber Fmt 4.6, Leading zero omitted, Abs format (unit mm)*
G04 Created by KiCad (PCBNEW 9.0.6) date 2026-02-10 10:36:59*
%MOMM*%
%LPD*%
G01*
G04 APERTURE LIST*
G04 Aperture macros list*
%AMRoundRect*
0 Rectangle with rounded corners*
0 $1 Rounding radius*
0 $2 $3 $4 $5 $6 $7 $8 $9 X,Y pos of 4 corners*
0 Add a 4 corners polygon primitive as box body*
4,1,4,$2,$3,$4,$5,$6,$7,$8,$9,$2,$3,0*
0 Add four circle primitives for the rounded corners*
1,1,$1+$1,$2,$3*
1,1,$1+$1,$4,$5*
1,1,$1+$1,$6,$7*
1,1,$1+$1,$8,$9*
0 Add four rect primitives between the rounded corners*
20,1,$1+$1,$2,$3,$4,$5,0*
20,1,$1+$1,$4,$5,$6,$7,0*
20,1,$1+$1,$6,$7,$8,$9,0*
20,1,$1+$1,$8,$9,$2,$3,0*%
G04 Aperture macros list end*
%ADD10C,0.010000*%
%ADD11R,3.150000X1.000000*%
%ADD12RoundRect,0.225000X0.250000X-0.225000X0.250000X0.225000X-0.250000X0.225000X-0.250000X-0.225000X0*%
G04 APERTURE END LIST*
D10*
%TO.C,INMP1*%
X148275000Y-126755000D02*
X147725000Y-126755000D01*
X147725000Y-126405000D01*
X148275000Y-126405000D01*
X148275000Y-126755000D01*
G36*
X148275000Y-126755000D02*
G01*
X147725000Y-126755000D01*
X147725000Y-126405000D01*
X148275000Y-126405000D01*
X148275000Y-126755000D01*
G37*
X148275000Y-127805000D02*
X147725000Y-127805000D01*
X147725000Y-127455000D01*
X148275000Y-127455000D01*
X148275000Y-127805000D01*
G36*
X148275000Y-127805000D02*
G01*
X147725000Y-127805000D01*
X147725000Y-127455000D01*
X148275000Y-127455000D01*
X148275000Y-127805000D01*
G37*
X148275000Y-128855000D02*
X147725000Y-128855000D01*
X147725000Y-128505000D01*
X148275000Y-128505000D01*
X148275000Y-128855000D01*
G36*
X148275000Y-128855000D02*
G01*
X147725000Y-128855000D01*
X147725000Y-128505000D01*
X148275000Y-128505000D01*
X148275000Y-128855000D01*
G37*
X148275000Y-129905000D02*
X147725000Y-129905000D01*
X147725000Y-129555000D01*
X148275000Y-129555000D01*
X148275000Y-129905000D01*
G36*
X148275000Y-129905000D02*
G01*
X147725000Y-129905000D01*
X147725000Y-129555000D01*
X148275000Y-129555000D01*
X148275000Y-129905000D01*
G37*
X150935000Y-126755000D02*
X150385000Y-126755000D01*
X150385000Y-126405000D01*
X150935000Y-126405000D01*
X150935000Y-126755000D01*
G36*
X150935000Y-126755000D02*
G01*
X150385000Y-126755000D01*
X150385000Y-126405000D01*
X150935000Y-126405000D01*
X150935000Y-126755000D01*
G37*
X150935000Y-127805000D02*
X150385000Y-127805000D01*
X150385000Y-127455000D01*
X150935000Y-127455000D01*
X150935000Y-127805000D01*
G36*
X150935000Y-127805000D02*
G01*
X150385000Y-127805000D01*
X150385000Y-127455000D01*
X150935000Y-127455000D01*
X150935000Y-127805000D01*
G37*
X150935000Y-128855000D02*
X150385000Y-128855000D01*
X150385000Y-128505000D01*
X150935000Y-128505000D01*
X150935000Y-128855000D01*
G36*
X150935000Y-128855000D02*
G01*
X150385000Y-128855000D01*
X150385000Y-128505000D01*
X150935000Y-128505000D01*
X150935000Y-128855000D01*
G37*
X150935000Y-129905000D02*
X150385000Y-129905000D01*
X150385000Y-129555000D01*
X150935000Y-129555000D01*
X150935000Y-129905000D01*
G36*
X150935000Y-129905000D02*
G01*
X150385000Y-129905000D01*
X150385000Y-129555000D01*
X150935000Y-129555000D01*
X150935000Y-129905000D01*
G37*
X149397000Y-128942000D02*
X149435000Y-128946000D01*
X149473000Y-128952000D01*
X149511000Y-128960000D01*
X149548000Y-128970000D01*
X149585000Y-128981000D01*
X149621000Y-128995000D01*
X149657000Y-129009000D01*
X149692000Y-129026000D01*
X149726000Y-129044000D01*
X149759000Y-129064000D01*
X149791000Y-129086000D01*
X149821000Y-129108000D01*
X149624000Y-129305000D01*
X149607000Y-129294000D01*
X149587000Y-129281000D01*
X149565000Y-129270000D01*
X149544000Y-129260000D01*
X149521000Y-129250000D01*
X149499000Y-129242000D01*
X149476000Y-129234000D01*
X149452000Y-129228000D01*
X149429000Y-129223000D01*
X149405000Y-129219000D01*
X149381000Y-129216000D01*
X149357000Y-129214000D01*
X149332000Y-129213000D01*
X149308000Y-129214000D01*
X149284000Y-129215000D01*
X149260000Y-129218000D01*
X149236000Y-129222000D01*
X149213000Y-129227000D01*
X149189000Y-129233000D01*
X149166000Y-129240000D01*
X149143000Y-129248000D01*
X149121000Y-129257000D01*
X149099000Y-129267000D01*
X149077000Y-129279000D01*
X149057000Y-129291000D01*
X149036000Y-129304000D01*
X149017000Y-129318000D01*
X148998000Y-129333000D01*
X148979000Y-129349000D01*
X148959000Y-129369000D01*
X148939000Y-129389000D01*
X148923000Y-129408000D01*
X148908000Y-129427000D01*
X148894000Y-129446000D01*
X148881000Y-129467000D01*
X148869000Y-129487000D01*
X148857000Y-129509000D01*
X148847000Y-129531000D01*
X148838000Y-129553000D01*
X148830000Y-129576000D01*
X148823000Y-129599000D01*
X148817000Y-129623000D01*
X148812000Y-129646000D01*
X148808000Y-129670000D01*
X148805000Y-129694000D01*
X148804000Y-129718000D01*
X148803000Y-129742000D01*
X148804000Y-129767000D01*
X148806000Y-129791000D01*
X148809000Y-129815000D01*
X148813000Y-129839000D01*
X148818000Y-129862000D01*
X148824000Y-129886000D01*
X148832000Y-129909000D01*
X148840000Y-129931000D01*
X148850000Y-129954000D01*
X148860000Y-129975000D01*
X148871000Y-129997000D01*
X148884000Y-130017000D01*
X148895000Y-130034000D01*
X148894778Y-130033800D01*
X148698000Y-130231000D01*
X148676000Y-130201000D01*
X148654000Y-130169000D01*
X148634000Y-130136000D01*
X148616000Y-130102000D01*
X148599000Y-130067000D01*
X148585000Y-130031000D01*
X148571000Y-129995000D01*
X148560000Y-129958000D01*
X148550000Y-129921000D01*
X148542000Y-129883000D01*
X148536000Y-129845000D01*
X148532000Y-129807000D01*
X148530000Y-129768000D01*
X148530000Y-129730000D01*
X148531000Y-129691000D01*
X148534000Y-129653000D01*
X148539000Y-129615000D01*
X148546000Y-129577000D01*
X148555000Y-129539000D01*
X148566000Y-129502000D01*
X148578000Y-129465000D01*
X148592000Y-129430000D01*
X148608000Y-129394000D01*
X148626000Y-129360000D01*
X148645000Y-129327000D01*
X148666000Y-129294000D01*
X148688000Y-129263000D01*
X148712000Y-129232000D01*
X148737000Y-129203000D01*
X148764000Y-129174000D01*
X148793000Y-129147000D01*
X148822000Y-129122000D01*
X148853000Y-129098000D01*
X148884000Y-129076000D01*
X148917000Y-129055000D01*
X148950000Y-129036000D01*
X148984000Y-129018000D01*
X149020000Y-129002000D01*
X149055000Y-128988000D01*
X149092000Y-128976000D01*
X149129000Y-128965000D01*
X149167000Y-128956000D01*
X149205000Y-128949000D01*
X149243000Y-128944000D01*
X149281000Y-128941000D01*
X149320000Y-128940000D01*
X149358000Y-128940000D01*
X149397000Y-128942000D01*
G36*
X149397000Y-128942000D02*
G01*
X149435000Y-128946000D01*
X149473000Y-128952000D01*
X149511000Y-128960000D01*
X149548000Y-128970000D01*
X149585000Y-128981000D01*
X149621000Y-128995000D01*
X149657000Y-129009000D01*
X149692000Y-129026000D01*
X149726000Y-129044000D01*
X149759000Y-129064000D01*
X149791000Y-129086000D01*
X149821000Y-129108000D01*
X149624000Y-129305000D01*
X149607000Y-129294000D01*
X149587000Y-129281000D01*
X149565000Y-129270000D01*
X149544000Y-129260000D01*
X149521000Y-129250000D01*
X149499000Y-129242000D01*
X149476000Y-129234000D01*
X149452000Y-129228000D01*
X149429000Y-129223000D01*
X149405000Y-129219000D01*
X149381000Y-129216000D01*
X149357000Y-129214000D01*
X149332000Y-129213000D01*
X149308000Y-129214000D01*
X149284000Y-129215000D01*
X149260000Y-129218000D01*
X149236000Y-129222000D01*
X149213000Y-129227000D01*
X149189000Y-129233000D01*
X149166000Y-129240000D01*
X149143000Y-129248000D01*
X149121000Y-129257000D01*
X149099000Y-129267000D01*
X149077000Y-129279000D01*
X149057000Y-129291000D01*
X149036000Y-129304000D01*
X149017000Y-129318000D01*
X148998000Y-129333000D01*
X148979000Y-129349000D01*
X148959000Y-129369000D01*
X148939000Y-129389000D01*
X148923000Y-129408000D01*
X148908000Y-129427000D01*
X148894000Y-129446000D01*
X148881000Y-129467000D01*
X148869000Y-129487000D01*
X148857000Y-129509000D01*
X148847000Y-129531000D01*
X148838000Y-129553000D01*
X148830000Y-129576000D01*
X148823000Y-129599000D01*
X148817000Y-129623000D01*
X148812000Y-129646000D01*
X148808000Y-129670000D01*
X148805000Y-129694000D01*
X148804000Y-129718000D01*
X148803000Y-129742000D01*
X148804000Y-129767000D01*
X148806000Y-129791000D01*
X148809000Y-129815000D01*
X148813000Y-129839000D01*
X148818000Y-129862000D01*
X148824000Y-129886000D01*
X148832000Y-129909000D01*
X148840000Y-129931000D01*
X148850000Y-129954000D01*
X148860000Y-129975000D01*
X148871000Y-129997000D01*
X148884000Y-130017000D01*
X148895000Y-130034000D01*
X148894778Y-130033800D01*
X148698000Y-130231000D01*
X148676000Y-130201000D01*
X148654000Y-130169000D01*
X148634000Y-130136000D01*
X148616000Y-130102000D01*
X148599000Y-130067000D01*
X148585000Y-130031000D01*
X148571000Y-129995000D01*
X148560000Y-129958000D01*
X148550000Y-129921000D01*
X148542000Y-129883000D01*
X148536000Y-129845000D01*
X148532000Y-129807000D01*
X148530000Y-129768000D01*
X148530000Y-129730000D01*
X148531000Y-129691000D01*
X148534000Y-129653000D01*
X148539000Y-129615000D01*
X148546000Y-129577000D01*
X148555000Y-129539000D01*
X148566000Y-129502000D01*
X148578000Y-129465000D01*
X148592000Y-129430000D01*
X148608000Y-129394000D01*
X148626000Y-129360000D01*
X148645000Y-129327000D01*
X148666000Y-129294000D01*
X148688000Y-129263000D01*
X148712000Y-129232000D01*
X148737000Y-129203000D01*
X148764000Y-129174000D01*
X148793000Y-129147000D01*
X148822000Y-129122000D01*
X148853000Y-129098000D01*
X148884000Y-129076000D01*
X148917000Y-129055000D01*
X148950000Y-129036000D01*
X148984000Y-129018000D01*
X149020000Y-129002000D01*
X149055000Y-128988000D01*
X149092000Y-128976000D01*
X149129000Y-128965000D01*
X149167000Y-128956000D01*
X149205000Y-128949000D01*
X149243000Y-128944000D01*
X149281000Y-128941000D01*
X149320000Y-128940000D01*
X149358000Y-128940000D01*
X149397000Y-128942000D01*
G37*
X149984000Y-129279000D02*
X150006000Y-129311000D01*
X150026000Y-129344000D01*
X150044000Y-129378000D01*
X150061000Y-129413000D01*
X150075000Y-129449000D01*
X150089000Y-129485000D01*
X150100000Y-129522000D01*
X150110000Y-129559000D01*
X150118000Y-129597000D01*
X150124000Y-129635000D01*
X150128000Y-129673000D01*
X150130000Y-129712000D01*
X150130000Y-129750000D01*
X150129000Y-129789000D01*
X150126000Y-129827000D01*
X150121000Y-129865000D01*
X150114000Y-129903000D01*
X150105000Y-129941000D01*
X150094000Y-129978000D01*
X150082000Y-130015000D01*
X150068000Y-130050000D01*
X150052000Y-130086000D01*
X150034000Y-130120000D01*
X150015000Y-130153000D01*
X149994000Y-130186000D01*
X149972000Y-130217000D01*
X149948000Y-130248000D01*
X149923000Y-130277000D01*
X149896000Y-130306000D01*
X149867000Y-130333000D01*
X149838000Y-130358000D01*
X149807000Y-130382000D01*
X149776000Y-130404000D01*
X149743000Y-130425000D01*
X149710000Y-130444000D01*
X149676000Y-130462000D01*
X149640000Y-130478000D01*
X149605000Y-130492000D01*
X149568000Y-130504000D01*
X149531000Y-130515000D01*
X149493000Y-130524000D01*
X149455000Y-130531000D01*
X149417000Y-130536000D01*
X149379000Y-130539000D01*
X149340000Y-130540000D01*
X149302000Y-130540000D01*
X149263000Y-130538000D01*
X149225000Y-130534000D01*
X149187000Y-130528000D01*
X149149000Y-130520000D01*
X149112000Y-130510000D01*
X149075000Y-130499000D01*
X149039000Y-130485000D01*
X149003000Y-130471000D01*
X148968000Y-130454000D01*
X148934000Y-130436000D01*
X148901000Y-130416000D01*
X148869000Y-130394000D01*
X148839000Y-130372000D01*
X149036000Y-130175000D01*
X149053000Y-130186000D01*
X149073000Y-130199000D01*
X149095000Y-130210000D01*
X149116000Y-130220000D01*
X149139000Y-130230000D01*
X149161000Y-130238000D01*
X149184000Y-130246000D01*
X149208000Y-130252000D01*
X149231000Y-130257000D01*
X149255000Y-130261000D01*
X149279000Y-130264000D01*
X149303000Y-130266000D01*
X149328000Y-130267000D01*
X149352000Y-130266000D01*
X149376000Y-130265000D01*
X149400000Y-130262000D01*
X149424000Y-130258000D01*
X149447000Y-130253000D01*
X149471000Y-130247000D01*
X149494000Y-130240000D01*
X149517000Y-130232000D01*
X149539000Y-130223000D01*
X149561000Y-130213000D01*
X149583000Y-130201000D01*
X149603000Y-130189000D01*
X149624000Y-130176000D01*
X149643000Y-130162000D01*
X149662000Y-130147000D01*
X149681000Y-130131000D01*
X149701000Y-130111000D01*
X149721000Y-130091000D01*
X149737000Y-130072000D01*
X149752000Y-130053000D01*
X149766000Y-130034000D01*
X149779000Y-130013000D01*
X149791000Y-129993000D01*
X149803000Y-129971000D01*
X149813000Y-129949000D01*
X149822000Y-129927000D01*
X149830000Y-129904000D01*
X149837000Y-129881000D01*
X149843000Y-129857000D01*
X149848000Y-129834000D01*
X149852000Y-129810000D01*
X149855000Y-129786000D01*
X149856000Y-129762000D01*
X149857000Y-129738000D01*
X149856000Y-129713000D01*
X149854000Y-129689000D01*
X149851000Y-129665000D01*
X149847000Y-129641000D01*
X149842000Y-129618000D01*
X149836000Y-129594000D01*
X149828000Y-129571000D01*
X149820000Y-129549000D01*
X149810000Y-129526000D01*
X149800000Y-129505000D01*
X149789000Y-129483000D01*
X149776000Y-129463000D01*
X149765000Y-129446000D01*
X149765222Y-129446200D01*
X149962000Y-129249000D01*
X149984000Y-129279000D01*
G36*
X149984000Y-129279000D02*
G01*
X150006000Y-129311000D01*
X150026000Y-129344000D01*
X150044000Y-129378000D01*
X150061000Y-129413000D01*
X150075000Y-129449000D01*
X150089000Y-129485000D01*
X150100000Y-129522000D01*
X150110000Y-129559000D01*
X150118000Y-129597000D01*
X150124000Y-129635000D01*
X150128000Y-129673000D01*
X150130000Y-129712000D01*
X150130000Y-129750000D01*
X150129000Y-129789000D01*
X150126000Y-129827000D01*
X150121000Y-129865000D01*
X150114000Y-129903000D01*
X150105000Y-129941000D01*
X150094000Y-129978000D01*
X150082000Y-130015000D01*
X150068000Y-130050000D01*
X150052000Y-130086000D01*
X150034000Y-130120000D01*
X150015000Y-130153000D01*
X149994000Y-130186000D01*
X149972000Y-130217000D01*
X149948000Y-130248000D01*
X149923000Y-130277000D01*
X149896000Y-130306000D01*
X149867000Y-130333000D01*
X149838000Y-130358000D01*
X149807000Y-130382000D01*
X149776000Y-130404000D01*
X149743000Y-130425000D01*
X149710000Y-130444000D01*
X149676000Y-130462000D01*
X149640000Y-130478000D01*
X149605000Y-130492000D01*
X149568000Y-130504000D01*
X149531000Y-130515000D01*
X149493000Y-130524000D01*
X149455000Y-130531000D01*
X149417000Y-130536000D01*
X149379000Y-130539000D01*
X149340000Y-130540000D01*
X149302000Y-130540000D01*
X149263000Y-130538000D01*
X149225000Y-130534000D01*
X149187000Y-130528000D01*
X149149000Y-130520000D01*
X149112000Y-130510000D01*
X149075000Y-130499000D01*
X149039000Y-130485000D01*
X149003000Y-130471000D01*
X148968000Y-130454000D01*
X148934000Y-130436000D01*
X148901000Y-130416000D01*
X148869000Y-130394000D01*
X148839000Y-130372000D01*
X149036000Y-130175000D01*
X149053000Y-130186000D01*
X149073000Y-130199000D01*
X149095000Y-130210000D01*
X149116000Y-130220000D01*
X149139000Y-130230000D01*
X149161000Y-130238000D01*
X149184000Y-130246000D01*
X149208000Y-130252000D01*
X149231000Y-130257000D01*
X149255000Y-130261000D01*
X149279000Y-130264000D01*
X149303000Y-130266000D01*
X149328000Y-130267000D01*
X149352000Y-130266000D01*
X149376000Y-130265000D01*
X149400000Y-130262000D01*
X149424000Y-130258000D01*
X149447000Y-130253000D01*
X149471000Y-130247000D01*
X149494000Y-130240000D01*
X149517000Y-130232000D01*
X149539000Y-130223000D01*
X149561000Y-130213000D01*
X149583000Y-130201000D01*
X149603000Y-130189000D01*
X149624000Y-130176000D01*
X149643000Y-130162000D01*
X149662000Y-130147000D01*
X149681000Y-130131000D01*
X149701000Y-130111000D01*
X149721000Y-130091000D01*
X149737000Y-130072000D01*
X149752000Y-130053000D01*
X149766000Y-130034000D01*
X149779000Y-130013000D01*
X149791000Y-129993000D01*
X149803000Y-129971000D01*
X149813000Y-129949000D01*
X149822000Y-129927000D01*
X149830000Y-129904000D01*
X149837000Y-129881000D01*
X149843000Y-129857000D01*
X149848000Y-129834000D01*
X149852000Y-129810000D01*
X149855000Y-129786000D01*
X149856000Y-129762000D01*
X149857000Y-129738000D01*
X149856000Y-129713000D01*
X149854000Y-129689000D01*
X149851000Y-129665000D01*
X149847000Y-129641000D01*
X149842000Y-129618000D01*
X149836000Y-129594000D01*
X149828000Y-129571000D01*
X149820000Y-129549000D01*
X149810000Y-129526000D01*
X149800000Y-129505000D01*
X149789000Y-129483000D01*
X149776000Y-129463000D01*
X149765000Y-129446000D01*
X149765222Y-129446200D01*
X149962000Y-129249000D01*
X149984000Y-129279000D01*
G37*
%TD*%
D11*
%TO.C,U1*%
X157600000Y-149870000D03*
X157600000Y-147330000D03*
X157600000Y-144790000D03*
X157600000Y-142250000D03*
X157600000Y-139710000D03*
X157600000Y-137170000D03*
X157600000Y-134630000D03*
X141575000Y-134630000D03*
X141575000Y-137170000D03*
X141575000Y-139710000D03*
X141575000Y-142250000D03*
X141575000Y-144790000D03*
X141575000Y-147330000D03*
X141575000Y-149870000D03*
%TD*%
D12*
%TO.C,C_MIC1*%
X146000000Y-125950000D03*
X146000000Y-124400000D03*
%TD*%
M02*
