%TF.GenerationSoftware,KiCad,Pcbnew,9.0.6*%
%TF.CreationDate,2026-02-23T14:05:48-08:00*%
%TF.ProjectId,KiCAD Schematic Design,4b694341-4420-4536-9368-656d61746963,Vibebot Display V1*%
%TF.SameCoordinates,Original*%
%TF.FileFunction,Legend,Top*%
%TF.FilePolarity,Positive*%
%FSLAX46Y46*%
G04 Gerber Fmt 4.6, Leading zero omitted, Abs format (unit mm)*
G04 Created by KiCad (PCBNEW 9.0.6) date 2026-02-23 14:05:48*
%MOMM*%
%LPD*%
G01*
G04 APERTURE LIST*
%ADD10C,0.200000*%
%ADD11C,0.150000*%
%ADD12C,0.120000*%
G04 APERTURE END LIST*
D10*
X-63130326Y-39757275D02*
X-63130326Y-38757275D01*
X-63130326Y-38757275D02*
X-62892231Y-38757275D01*
X-62892231Y-38757275D02*
X-62749374Y-38804894D01*
X-62749374Y-38804894D02*
X-62654136Y-38900132D01*
X-62654136Y-38900132D02*
X-62606517Y-38995370D01*
X-62606517Y-38995370D02*
X-62558898Y-39185846D01*
X-62558898Y-39185846D02*
X-62558898Y-39328703D01*
X-62558898Y-39328703D02*
X-62606517Y-39519179D01*
X-62606517Y-39519179D02*
X-62654136Y-39614417D01*
X-62654136Y-39614417D02*
X-62749374Y-39709656D01*
X-62749374Y-39709656D02*
X-62892231Y-39757275D01*
X-62892231Y-39757275D02*
X-63130326Y-39757275D01*
X-62130326Y-39757275D02*
X-62130326Y-39090608D01*
X-62130326Y-38757275D02*
X-62177945Y-38804894D01*
X-62177945Y-38804894D02*
X-62130326Y-38852513D01*
X-62130326Y-38852513D02*
X-62082707Y-38804894D01*
X-62082707Y-38804894D02*
X-62130326Y-38757275D01*
X-62130326Y-38757275D02*
X-62130326Y-38852513D01*
X-61701755Y-39709656D02*
X-61606517Y-39757275D01*
X-61606517Y-39757275D02*
X-61416041Y-39757275D01*
X-61416041Y-39757275D02*
X-61320803Y-39709656D01*
X-61320803Y-39709656D02*
X-61273184Y-39614417D01*
X-61273184Y-39614417D02*
X-61273184Y-39566798D01*
X-61273184Y-39566798D02*
X-61320803Y-39471560D01*
X-61320803Y-39471560D02*
X-61416041Y-39423941D01*
X-61416041Y-39423941D02*
X-61558898Y-39423941D01*
X-61558898Y-39423941D02*
X-61654136Y-39376322D01*
X-61654136Y-39376322D02*
X-61701755Y-39281084D01*
X-61701755Y-39281084D02*
X-61701755Y-39233465D01*
X-61701755Y-39233465D02*
X-61654136Y-39138227D01*
X-61654136Y-39138227D02*
X-61558898Y-39090608D01*
X-61558898Y-39090608D02*
X-61416041Y-39090608D01*
X-61416041Y-39090608D02*
X-61320803Y-39138227D01*
X-60844612Y-39090608D02*
X-60844612Y-40090608D01*
X-60844612Y-39138227D02*
X-60749374Y-39090608D01*
X-60749374Y-39090608D02*
X-60558898Y-39090608D01*
X-60558898Y-39090608D02*
X-60463660Y-39138227D01*
X-60463660Y-39138227D02*
X-60416041Y-39185846D01*
X-60416041Y-39185846D02*
X-60368422Y-39281084D01*
X-60368422Y-39281084D02*
X-60368422Y-39566798D01*
X-60368422Y-39566798D02*
X-60416041Y-39662036D01*
X-60416041Y-39662036D02*
X-60463660Y-39709656D01*
X-60463660Y-39709656D02*
X-60558898Y-39757275D01*
X-60558898Y-39757275D02*
X-60749374Y-39757275D01*
X-60749374Y-39757275D02*
X-60844612Y-39709656D01*
X-59796993Y-39757275D02*
X-59892231Y-39709656D01*
X-59892231Y-39709656D02*
X-59939850Y-39614417D01*
X-59939850Y-39614417D02*
X-59939850Y-38757275D01*
X-58987469Y-39757275D02*
X-58987469Y-39233465D01*
X-58987469Y-39233465D02*
X-59035088Y-39138227D01*
X-59035088Y-39138227D02*
X-59130326Y-39090608D01*
X-59130326Y-39090608D02*
X-59320802Y-39090608D01*
X-59320802Y-39090608D02*
X-59416040Y-39138227D01*
X-58987469Y-39709656D02*
X-59082707Y-39757275D01*
X-59082707Y-39757275D02*
X-59320802Y-39757275D01*
X-59320802Y-39757275D02*
X-59416040Y-39709656D01*
X-59416040Y-39709656D02*
X-59463659Y-39614417D01*
X-59463659Y-39614417D02*
X-59463659Y-39519179D01*
X-59463659Y-39519179D02*
X-59416040Y-39423941D01*
X-59416040Y-39423941D02*
X-59320802Y-39376322D01*
X-59320802Y-39376322D02*
X-59082707Y-39376322D01*
X-59082707Y-39376322D02*
X-58987469Y-39328703D01*
X-58606516Y-39090608D02*
X-58368421Y-39757275D01*
X-58130326Y-39090608D02*
X-58368421Y-39757275D01*
X-58368421Y-39757275D02*
X-58463659Y-39995370D01*
X-58463659Y-39995370D02*
X-58511278Y-40042989D01*
X-58511278Y-40042989D02*
X-58606516Y-40090608D01*
X-56987468Y-39757275D02*
X-56987468Y-38757275D01*
X-56987468Y-38757275D02*
X-56606516Y-38757275D01*
X-56606516Y-38757275D02*
X-56511278Y-38804894D01*
X-56511278Y-38804894D02*
X-56463659Y-38852513D01*
X-56463659Y-38852513D02*
X-56416040Y-38947751D01*
X-56416040Y-38947751D02*
X-56416040Y-39090608D01*
X-56416040Y-39090608D02*
X-56463659Y-39185846D01*
X-56463659Y-39185846D02*
X-56511278Y-39233465D01*
X-56511278Y-39233465D02*
X-56606516Y-39281084D01*
X-56606516Y-39281084D02*
X-56987468Y-39281084D01*
X-55416040Y-39662036D02*
X-55463659Y-39709656D01*
X-55463659Y-39709656D02*
X-55606516Y-39757275D01*
X-55606516Y-39757275D02*
X-55701754Y-39757275D01*
X-55701754Y-39757275D02*
X-55844611Y-39709656D01*
X-55844611Y-39709656D02*
X-55939849Y-39614417D01*
X-55939849Y-39614417D02*
X-55987468Y-39519179D01*
X-55987468Y-39519179D02*
X-56035087Y-39328703D01*
X-56035087Y-39328703D02*
X-56035087Y-39185846D01*
X-56035087Y-39185846D02*
X-55987468Y-38995370D01*
X-55987468Y-38995370D02*
X-55939849Y-38900132D01*
X-55939849Y-38900132D02*
X-55844611Y-38804894D01*
X-55844611Y-38804894D02*
X-55701754Y-38757275D01*
X-55701754Y-38757275D02*
X-55606516Y-38757275D01*
X-55606516Y-38757275D02*
X-55463659Y-38804894D01*
X-55463659Y-38804894D02*
X-55416040Y-38852513D01*
X-54654135Y-39233465D02*
X-54511278Y-39281084D01*
X-54511278Y-39281084D02*
X-54463659Y-39328703D01*
X-54463659Y-39328703D02*
X-54416040Y-39423941D01*
X-54416040Y-39423941D02*
X-54416040Y-39566798D01*
X-54416040Y-39566798D02*
X-54463659Y-39662036D01*
X-54463659Y-39662036D02*
X-54511278Y-39709656D01*
X-54511278Y-39709656D02*
X-54606516Y-39757275D01*
X-54606516Y-39757275D02*
X-54987468Y-39757275D01*
X-54987468Y-39757275D02*
X-54987468Y-38757275D01*
X-54987468Y-38757275D02*
X-54654135Y-38757275D01*
X-54654135Y-38757275D02*
X-54558897Y-38804894D01*
X-54558897Y-38804894D02*
X-54511278Y-38852513D01*
X-54511278Y-38852513D02*
X-54463659Y-38947751D01*
X-54463659Y-38947751D02*
X-54463659Y-39042989D01*
X-54463659Y-39042989D02*
X-54511278Y-39138227D01*
X-54511278Y-39138227D02*
X-54558897Y-39185846D01*
X-54558897Y-39185846D02*
X-54654135Y-39233465D01*
X-54654135Y-39233465D02*
X-54987468Y-39233465D01*
X-53225563Y-39376322D02*
X-52463659Y-39376322D01*
X-51368420Y-38757275D02*
X-51035087Y-39757275D01*
X-51035087Y-39757275D02*
X-50701754Y-38757275D01*
X-50368420Y-39757275D02*
X-50368420Y-39090608D01*
X-50368420Y-38757275D02*
X-50416039Y-38804894D01*
X-50416039Y-38804894D02*
X-50368420Y-38852513D01*
X-50368420Y-38852513D02*
X-50320801Y-38804894D01*
X-50320801Y-38804894D02*
X-50368420Y-38757275D01*
X-50368420Y-38757275D02*
X-50368420Y-38852513D01*
X-49892230Y-39757275D02*
X-49892230Y-38757275D01*
X-49892230Y-39138227D02*
X-49796992Y-39090608D01*
X-49796992Y-39090608D02*
X-49606516Y-39090608D01*
X-49606516Y-39090608D02*
X-49511278Y-39138227D01*
X-49511278Y-39138227D02*
X-49463659Y-39185846D01*
X-49463659Y-39185846D02*
X-49416040Y-39281084D01*
X-49416040Y-39281084D02*
X-49416040Y-39566798D01*
X-49416040Y-39566798D02*
X-49463659Y-39662036D01*
X-49463659Y-39662036D02*
X-49511278Y-39709656D01*
X-49511278Y-39709656D02*
X-49606516Y-39757275D01*
X-49606516Y-39757275D02*
X-49796992Y-39757275D01*
X-49796992Y-39757275D02*
X-49892230Y-39709656D01*
X-48606516Y-39709656D02*
X-48701754Y-39757275D01*
X-48701754Y-39757275D02*
X-48892230Y-39757275D01*
X-48892230Y-39757275D02*
X-48987468Y-39709656D01*
X-48987468Y-39709656D02*
X-49035087Y-39614417D01*
X-49035087Y-39614417D02*
X-49035087Y-39233465D01*
X-49035087Y-39233465D02*
X-48987468Y-39138227D01*
X-48987468Y-39138227D02*
X-48892230Y-39090608D01*
X-48892230Y-39090608D02*
X-48701754Y-39090608D01*
X-48701754Y-39090608D02*
X-48606516Y-39138227D01*
X-48606516Y-39138227D02*
X-48558897Y-39233465D01*
X-48558897Y-39233465D02*
X-48558897Y-39328703D01*
X-48558897Y-39328703D02*
X-49035087Y-39423941D01*
X-47035087Y-39233465D02*
X-46892230Y-39281084D01*
X-46892230Y-39281084D02*
X-46844611Y-39328703D01*
X-46844611Y-39328703D02*
X-46796992Y-39423941D01*
X-46796992Y-39423941D02*
X-46796992Y-39566798D01*
X-46796992Y-39566798D02*
X-46844611Y-39662036D01*
X-46844611Y-39662036D02*
X-46892230Y-39709656D01*
X-46892230Y-39709656D02*
X-46987468Y-39757275D01*
X-46987468Y-39757275D02*
X-47368420Y-39757275D01*
X-47368420Y-39757275D02*
X-47368420Y-38757275D01*
X-47368420Y-38757275D02*
X-47035087Y-38757275D01*
X-47035087Y-38757275D02*
X-46939849Y-38804894D01*
X-46939849Y-38804894D02*
X-46892230Y-38852513D01*
X-46892230Y-38852513D02*
X-46844611Y-38947751D01*
X-46844611Y-38947751D02*
X-46844611Y-39042989D01*
X-46844611Y-39042989D02*
X-46892230Y-39138227D01*
X-46892230Y-39138227D02*
X-46939849Y-39185846D01*
X-46939849Y-39185846D02*
X-47035087Y-39233465D01*
X-47035087Y-39233465D02*
X-47368420Y-39233465D01*
X-46225563Y-39757275D02*
X-46320801Y-39709656D01*
X-46320801Y-39709656D02*
X-46368420Y-39662036D01*
X-46368420Y-39662036D02*
X-46416039Y-39566798D01*
X-46416039Y-39566798D02*
X-46416039Y-39281084D01*
X-46416039Y-39281084D02*
X-46368420Y-39185846D01*
X-46368420Y-39185846D02*
X-46320801Y-39138227D01*
X-46320801Y-39138227D02*
X-46225563Y-39090608D01*
X-46225563Y-39090608D02*
X-46082706Y-39090608D01*
X-46082706Y-39090608D02*
X-45987468Y-39138227D01*
X-45987468Y-39138227D02*
X-45939849Y-39185846D01*
X-45939849Y-39185846D02*
X-45892230Y-39281084D01*
X-45892230Y-39281084D02*
X-45892230Y-39566798D01*
X-45892230Y-39566798D02*
X-45939849Y-39662036D01*
X-45939849Y-39662036D02*
X-45987468Y-39709656D01*
X-45987468Y-39709656D02*
X-46082706Y-39757275D01*
X-46082706Y-39757275D02*
X-46225563Y-39757275D01*
X-45606515Y-39090608D02*
X-45225563Y-39090608D01*
X-45463658Y-38757275D02*
X-45463658Y-39614417D01*
X-45463658Y-39614417D02*
X-45416039Y-39709656D01*
X-45416039Y-39709656D02*
X-45320801Y-39757275D01*
X-45320801Y-39757275D02*
X-45225563Y-39757275D01*
X-60844611Y-41367219D02*
X-60844611Y-40367219D01*
X-60844611Y-40367219D02*
X-60606516Y-40367219D01*
X-60606516Y-40367219D02*
X-60463659Y-40414838D01*
X-60463659Y-40414838D02*
X-60368421Y-40510076D01*
X-60368421Y-40510076D02*
X-60320802Y-40605314D01*
X-60320802Y-40605314D02*
X-60273183Y-40795790D01*
X-60273183Y-40795790D02*
X-60273183Y-40938647D01*
X-60273183Y-40938647D02*
X-60320802Y-41129123D01*
X-60320802Y-41129123D02*
X-60368421Y-41224361D01*
X-60368421Y-41224361D02*
X-60463659Y-41319600D01*
X-60463659Y-41319600D02*
X-60606516Y-41367219D01*
X-60606516Y-41367219D02*
X-60844611Y-41367219D01*
X-59416040Y-41367219D02*
X-59416040Y-40843409D01*
X-59416040Y-40843409D02*
X-59463659Y-40748171D01*
X-59463659Y-40748171D02*
X-59558897Y-40700552D01*
X-59558897Y-40700552D02*
X-59749373Y-40700552D01*
X-59749373Y-40700552D02*
X-59844611Y-40748171D01*
X-59416040Y-41319600D02*
X-59511278Y-41367219D01*
X-59511278Y-41367219D02*
X-59749373Y-41367219D01*
X-59749373Y-41367219D02*
X-59844611Y-41319600D01*
X-59844611Y-41319600D02*
X-59892230Y-41224361D01*
X-59892230Y-41224361D02*
X-59892230Y-41129123D01*
X-59892230Y-41129123D02*
X-59844611Y-41033885D01*
X-59844611Y-41033885D02*
X-59749373Y-40986266D01*
X-59749373Y-40986266D02*
X-59511278Y-40986266D01*
X-59511278Y-40986266D02*
X-59416040Y-40938647D01*
X-58939849Y-40700552D02*
X-58939849Y-41367219D01*
X-58939849Y-40795790D02*
X-58892230Y-40748171D01*
X-58892230Y-40748171D02*
X-58796992Y-40700552D01*
X-58796992Y-40700552D02*
X-58654135Y-40700552D01*
X-58654135Y-40700552D02*
X-58558897Y-40748171D01*
X-58558897Y-40748171D02*
X-58511278Y-40843409D01*
X-58511278Y-40843409D02*
X-58511278Y-41367219D01*
X-58035087Y-41367219D02*
X-58035087Y-40700552D01*
X-58035087Y-40367219D02*
X-58082706Y-40414838D01*
X-58082706Y-40414838D02*
X-58035087Y-40462457D01*
X-58035087Y-40462457D02*
X-57987468Y-40414838D01*
X-57987468Y-40414838D02*
X-58035087Y-40367219D01*
X-58035087Y-40367219D02*
X-58035087Y-40462457D01*
X-57177945Y-41319600D02*
X-57273183Y-41367219D01*
X-57273183Y-41367219D02*
X-57463659Y-41367219D01*
X-57463659Y-41367219D02*
X-57558897Y-41319600D01*
X-57558897Y-41319600D02*
X-57606516Y-41224361D01*
X-57606516Y-41224361D02*
X-57606516Y-40843409D01*
X-57606516Y-40843409D02*
X-57558897Y-40748171D01*
X-57558897Y-40748171D02*
X-57463659Y-40700552D01*
X-57463659Y-40700552D02*
X-57273183Y-40700552D01*
X-57273183Y-40700552D02*
X-57177945Y-40748171D01*
X-57177945Y-40748171D02*
X-57130326Y-40843409D01*
X-57130326Y-40843409D02*
X-57130326Y-40938647D01*
X-57130326Y-40938647D02*
X-57606516Y-41033885D01*
X-56558897Y-41367219D02*
X-56654135Y-41319600D01*
X-56654135Y-41319600D02*
X-56701754Y-41224361D01*
X-56701754Y-41224361D02*
X-56701754Y-40367219D01*
X-55511277Y-40367219D02*
X-54844611Y-40367219D01*
X-54844611Y-40367219D02*
X-55511277Y-41367219D01*
X-55511277Y-41367219D02*
X-54844611Y-41367219D01*
X-54082706Y-41319600D02*
X-54177944Y-41367219D01*
X-54177944Y-41367219D02*
X-54368420Y-41367219D01*
X-54368420Y-41367219D02*
X-54463658Y-41319600D01*
X-54463658Y-41319600D02*
X-54511277Y-41224361D01*
X-54511277Y-41224361D02*
X-54511277Y-40843409D01*
X-54511277Y-40843409D02*
X-54463658Y-40748171D01*
X-54463658Y-40748171D02*
X-54368420Y-40700552D01*
X-54368420Y-40700552D02*
X-54177944Y-40700552D01*
X-54177944Y-40700552D02*
X-54082706Y-40748171D01*
X-54082706Y-40748171D02*
X-54035087Y-40843409D01*
X-54035087Y-40843409D02*
X-54035087Y-40938647D01*
X-54035087Y-40938647D02*
X-54511277Y-41033885D01*
X-53463658Y-41367219D02*
X-53558896Y-41319600D01*
X-53558896Y-41319600D02*
X-53606515Y-41224361D01*
X-53606515Y-41224361D02*
X-53606515Y-40367219D01*
X-53082705Y-41367219D02*
X-53082705Y-40700552D01*
X-53082705Y-40367219D02*
X-53130324Y-40414838D01*
X-53130324Y-40414838D02*
X-53082705Y-40462457D01*
X-53082705Y-40462457D02*
X-53035086Y-40414838D01*
X-53035086Y-40414838D02*
X-53082705Y-40367219D01*
X-53082705Y-40367219D02*
X-53082705Y-40462457D01*
X-52606515Y-40700552D02*
X-52606515Y-41367219D01*
X-52606515Y-40795790D02*
X-52558896Y-40748171D01*
X-52558896Y-40748171D02*
X-52463658Y-40700552D01*
X-52463658Y-40700552D02*
X-52320801Y-40700552D01*
X-52320801Y-40700552D02*
X-52225563Y-40748171D01*
X-52225563Y-40748171D02*
X-52177944Y-40843409D01*
X-52177944Y-40843409D02*
X-52177944Y-41367219D01*
X-51273182Y-40700552D02*
X-51273182Y-41510076D01*
X-51273182Y-41510076D02*
X-51320801Y-41605314D01*
X-51320801Y-41605314D02*
X-51368420Y-41652933D01*
X-51368420Y-41652933D02*
X-51463658Y-41700552D01*
X-51463658Y-41700552D02*
X-51606515Y-41700552D01*
X-51606515Y-41700552D02*
X-51701753Y-41652933D01*
X-51273182Y-41319600D02*
X-51368420Y-41367219D01*
X-51368420Y-41367219D02*
X-51558896Y-41367219D01*
X-51558896Y-41367219D02*
X-51654134Y-41319600D01*
X-51654134Y-41319600D02*
X-51701753Y-41271980D01*
X-51701753Y-41271980D02*
X-51749372Y-41176742D01*
X-51749372Y-41176742D02*
X-51749372Y-40891028D01*
X-51749372Y-40891028D02*
X-51701753Y-40795790D01*
X-51701753Y-40795790D02*
X-51654134Y-40748171D01*
X-51654134Y-40748171D02*
X-51558896Y-40700552D01*
X-51558896Y-40700552D02*
X-51368420Y-40700552D01*
X-51368420Y-40700552D02*
X-51273182Y-40748171D01*
X-50416039Y-41319600D02*
X-50511277Y-41367219D01*
X-50511277Y-41367219D02*
X-50701753Y-41367219D01*
X-50701753Y-41367219D02*
X-50796991Y-41319600D01*
X-50796991Y-41319600D02*
X-50844610Y-41224361D01*
X-50844610Y-41224361D02*
X-50844610Y-40843409D01*
X-50844610Y-40843409D02*
X-50796991Y-40748171D01*
X-50796991Y-40748171D02*
X-50701753Y-40700552D01*
X-50701753Y-40700552D02*
X-50511277Y-40700552D01*
X-50511277Y-40700552D02*
X-50416039Y-40748171D01*
X-50416039Y-40748171D02*
X-50368420Y-40843409D01*
X-50368420Y-40843409D02*
X-50368420Y-40938647D01*
X-50368420Y-40938647D02*
X-50844610Y-41033885D01*
X-49939848Y-41367219D02*
X-49939848Y-40700552D01*
X-49939848Y-40891028D02*
X-49892229Y-40795790D01*
X-49892229Y-40795790D02*
X-49844610Y-40748171D01*
X-49844610Y-40748171D02*
X-49749372Y-40700552D01*
X-49749372Y-40700552D02*
X-49654134Y-40700552D01*
D11*
X-68068990Y-46357143D02*
X-68021371Y-46214286D01*
X-68021371Y-46214286D02*
X-67973752Y-46166667D01*
X-67973752Y-46166667D02*
X-67878514Y-46119048D01*
X-67878514Y-46119048D02*
X-67735657Y-46119048D01*
X-67735657Y-46119048D02*
X-67640419Y-46166667D01*
X-67640419Y-46166667D02*
X-67592800Y-46214286D01*
X-67592800Y-46214286D02*
X-67545180Y-46309524D01*
X-67545180Y-46309524D02*
X-67545180Y-46690476D01*
X-67545180Y-46690476D02*
X-68545180Y-46690476D01*
X-68545180Y-46690476D02*
X-68545180Y-46357143D01*
X-68545180Y-46357143D02*
X-68497561Y-46261905D01*
X-68497561Y-46261905D02*
X-68449942Y-46214286D01*
X-68449942Y-46214286D02*
X-68354704Y-46166667D01*
X-68354704Y-46166667D02*
X-68259466Y-46166667D01*
X-68259466Y-46166667D02*
X-68164228Y-46214286D01*
X-68164228Y-46214286D02*
X-68116609Y-46261905D01*
X-68116609Y-46261905D02*
X-68068990Y-46357143D01*
X-68068990Y-46357143D02*
X-68068990Y-46690476D01*
X-68211847Y-45261905D02*
X-67545180Y-45261905D01*
X-68211847Y-45690476D02*
X-67688038Y-45690476D01*
X-67688038Y-45690476D02*
X-67592800Y-45642857D01*
X-67592800Y-45642857D02*
X-67545180Y-45547619D01*
X-67545180Y-45547619D02*
X-67545180Y-45404762D01*
X-67545180Y-45404762D02*
X-67592800Y-45309524D01*
X-67592800Y-45309524D02*
X-67640419Y-45261905D01*
X-68211847Y-44928571D02*
X-68211847Y-44547619D01*
X-68545180Y-44785714D02*
X-67688038Y-44785714D01*
X-67688038Y-44785714D02*
X-67592800Y-44738095D01*
X-67592800Y-44738095D02*
X-67545180Y-44642857D01*
X-67545180Y-44642857D02*
X-67545180Y-44547619D01*
X-68211847Y-44357142D02*
X-68211847Y-43976190D01*
X-68545180Y-44214285D02*
X-67688038Y-44214285D01*
X-67688038Y-44214285D02*
X-67592800Y-44166666D01*
X-67592800Y-44166666D02*
X-67545180Y-44071428D01*
X-67545180Y-44071428D02*
X-67545180Y-43976190D01*
X-67545180Y-43499999D02*
X-67592800Y-43595237D01*
X-67592800Y-43595237D02*
X-67640419Y-43642856D01*
X-67640419Y-43642856D02*
X-67735657Y-43690475D01*
X-67735657Y-43690475D02*
X-68021371Y-43690475D01*
X-68021371Y-43690475D02*
X-68116609Y-43642856D01*
X-68116609Y-43642856D02*
X-68164228Y-43595237D01*
X-68164228Y-43595237D02*
X-68211847Y-43499999D01*
X-68211847Y-43499999D02*
X-68211847Y-43357142D01*
X-68211847Y-43357142D02*
X-68164228Y-43261904D01*
X-68164228Y-43261904D02*
X-68116609Y-43214285D01*
X-68116609Y-43214285D02*
X-68021371Y-43166666D01*
X-68021371Y-43166666D02*
X-67735657Y-43166666D01*
X-67735657Y-43166666D02*
X-67640419Y-43214285D01*
X-67640419Y-43214285D02*
X-67592800Y-43261904D01*
X-67592800Y-43261904D02*
X-67545180Y-43357142D01*
X-67545180Y-43357142D02*
X-67545180Y-43499999D01*
X-68211847Y-42738094D02*
X-67545180Y-42738094D01*
X-68116609Y-42738094D02*
X-68164228Y-42690475D01*
X-68164228Y-42690475D02*
X-68211847Y-42595237D01*
X-68211847Y-42595237D02*
X-68211847Y-42452380D01*
X-68211847Y-42452380D02*
X-68164228Y-42357142D01*
X-68164228Y-42357142D02*
X-68068990Y-42309523D01*
X-68068990Y-42309523D02*
X-67545180Y-42309523D01*
X-72774404Y-29294819D02*
X-72774404Y-30104342D01*
X-72774404Y-30104342D02*
X-72726785Y-30199580D01*
X-72726785Y-30199580D02*
X-72679166Y-30247200D01*
X-72679166Y-30247200D02*
X-72583928Y-30294819D01*
X-72583928Y-30294819D02*
X-72393452Y-30294819D01*
X-72393452Y-30294819D02*
X-72298214Y-30247200D01*
X-72298214Y-30247200D02*
X-72250595Y-30199580D01*
X-72250595Y-30199580D02*
X-72202976Y-30104342D01*
X-72202976Y-30104342D02*
X-72202976Y-29294819D01*
X-71202976Y-30294819D02*
X-71774404Y-30294819D01*
X-71488690Y-30294819D02*
X-71488690Y-29294819D01*
X-71488690Y-29294819D02*
X-71583928Y-29437676D01*
X-71583928Y-29437676D02*
X-71679166Y-29532914D01*
X-71679166Y-29532914D02*
X-71774404Y-29580533D01*
X-80404762Y-38954819D02*
X-80404762Y-39669104D01*
X-80404762Y-39669104D02*
X-80452381Y-39811961D01*
X-80452381Y-39811961D02*
X-80547619Y-39907200D01*
X-80547619Y-39907200D02*
X-80690476Y-39954819D01*
X-80690476Y-39954819D02*
X-80785714Y-39954819D01*
X-80166667Y-40050057D02*
X-79404762Y-40050057D01*
X-78833333Y-39431009D02*
X-78690476Y-39478628D01*
X-78690476Y-39478628D02*
X-78642857Y-39526247D01*
X-78642857Y-39526247D02*
X-78595238Y-39621485D01*
X-78595238Y-39621485D02*
X-78595238Y-39764342D01*
X-78595238Y-39764342D02*
X-78642857Y-39859580D01*
X-78642857Y-39859580D02*
X-78690476Y-39907200D01*
X-78690476Y-39907200D02*
X-78785714Y-39954819D01*
X-78785714Y-39954819D02*
X-79166666Y-39954819D01*
X-79166666Y-39954819D02*
X-79166666Y-38954819D01*
X-79166666Y-38954819D02*
X-78833333Y-38954819D01*
X-78833333Y-38954819D02*
X-78738095Y-39002438D01*
X-78738095Y-39002438D02*
X-78690476Y-39050057D01*
X-78690476Y-39050057D02*
X-78642857Y-39145295D01*
X-78642857Y-39145295D02*
X-78642857Y-39240533D01*
X-78642857Y-39240533D02*
X-78690476Y-39335771D01*
X-78690476Y-39335771D02*
X-78738095Y-39383390D01*
X-78738095Y-39383390D02*
X-78833333Y-39431009D01*
X-78833333Y-39431009D02*
X-79166666Y-39431009D01*
X-78214285Y-39669104D02*
X-77738095Y-39669104D01*
X-78309523Y-39954819D02*
X-77976190Y-38954819D01*
X-77976190Y-38954819D02*
X-77642857Y-39954819D01*
X-77452380Y-38954819D02*
X-76880952Y-38954819D01*
X-77166666Y-39954819D02*
X-77166666Y-38954819D01*
X-76690475Y-38954819D02*
X-76119047Y-38954819D01*
X-76404761Y-39954819D02*
X-76404761Y-38954819D01*
X-75261904Y-39954819D02*
X-75833332Y-39954819D01*
X-75547618Y-39954819D02*
X-75547618Y-38954819D01*
X-75547618Y-38954819D02*
X-75642856Y-39097676D01*
X-75642856Y-39097676D02*
X-75738094Y-39192914D01*
X-75738094Y-39192914D02*
X-75833332Y-39240533D01*
X-92045180Y-40452380D02*
X-92045180Y-40261904D01*
X-92045180Y-40261904D02*
X-91997561Y-40166666D01*
X-91997561Y-40166666D02*
X-91902323Y-40071428D01*
X-91902323Y-40071428D02*
X-91711847Y-40023809D01*
X-91711847Y-40023809D02*
X-91378514Y-40023809D01*
X-91378514Y-40023809D02*
X-91188038Y-40071428D01*
X-91188038Y-40071428D02*
X-91092800Y-40166666D01*
X-91092800Y-40166666D02*
X-91045180Y-40261904D01*
X-91045180Y-40261904D02*
X-91045180Y-40452380D01*
X-91045180Y-40452380D02*
X-91092800Y-40547618D01*
X-91092800Y-40547618D02*
X-91188038Y-40642856D01*
X-91188038Y-40642856D02*
X-91378514Y-40690475D01*
X-91378514Y-40690475D02*
X-91711847Y-40690475D01*
X-91711847Y-40690475D02*
X-91902323Y-40642856D01*
X-91902323Y-40642856D02*
X-91997561Y-40547618D01*
X-91997561Y-40547618D02*
X-92045180Y-40452380D01*
X-91045180Y-39119047D02*
X-91045180Y-39595237D01*
X-91045180Y-39595237D02*
X-92045180Y-39595237D01*
X-91568990Y-38785713D02*
X-91568990Y-38452380D01*
X-91045180Y-38309523D02*
X-91045180Y-38785713D01*
X-91045180Y-38785713D02*
X-92045180Y-38785713D01*
X-92045180Y-38785713D02*
X-92045180Y-38309523D01*
X-91045180Y-37880951D02*
X-92045180Y-37880951D01*
X-92045180Y-37880951D02*
X-92045180Y-37642856D01*
X-92045180Y-37642856D02*
X-91997561Y-37499999D01*
X-91997561Y-37499999D02*
X-91902323Y-37404761D01*
X-91902323Y-37404761D02*
X-91807085Y-37357142D01*
X-91807085Y-37357142D02*
X-91616609Y-37309523D01*
X-91616609Y-37309523D02*
X-91473752Y-37309523D01*
X-91473752Y-37309523D02*
X-91283276Y-37357142D01*
X-91283276Y-37357142D02*
X-91188038Y-37404761D01*
X-91188038Y-37404761D02*
X-91092800Y-37499999D01*
X-91092800Y-37499999D02*
X-91045180Y-37642856D01*
X-91045180Y-37642856D02*
X-91045180Y-37880951D01*
X-92045180Y-33095238D02*
X-91045180Y-32428572D01*
X-92045180Y-32428572D02*
X-91045180Y-33095238D01*
X-91949942Y-32095238D02*
X-91997561Y-32047619D01*
X-91997561Y-32047619D02*
X-92045180Y-31952381D01*
X-92045180Y-31952381D02*
X-92045180Y-31714286D01*
X-92045180Y-31714286D02*
X-91997561Y-31619048D01*
X-91997561Y-31619048D02*
X-91949942Y-31571429D01*
X-91949942Y-31571429D02*
X-91854704Y-31523810D01*
X-91854704Y-31523810D02*
X-91759466Y-31523810D01*
X-91759466Y-31523810D02*
X-91616609Y-31571429D01*
X-91616609Y-31571429D02*
X-91045180Y-32142857D01*
X-91045180Y-32142857D02*
X-91045180Y-31523810D01*
X-92045180Y-31190476D02*
X-92045180Y-30523810D01*
X-92045180Y-30523810D02*
X-91045180Y-30952381D01*
X-91045180Y-29619048D02*
X-91045180Y-30190476D01*
X-91045180Y-29904762D02*
X-92045180Y-29904762D01*
X-92045180Y-29904762D02*
X-91902323Y-30000000D01*
X-91902323Y-30000000D02*
X-91807085Y-30095238D01*
X-91807085Y-30095238D02*
X-91759466Y-30190476D01*
X-92045180Y-28761905D02*
X-92045180Y-28952381D01*
X-92045180Y-28952381D02*
X-91997561Y-29047619D01*
X-91997561Y-29047619D02*
X-91949942Y-29095238D01*
X-91949942Y-29095238D02*
X-91807085Y-29190476D01*
X-91807085Y-29190476D02*
X-91616609Y-29238095D01*
X-91616609Y-29238095D02*
X-91235657Y-29238095D01*
X-91235657Y-29238095D02*
X-91140419Y-29190476D01*
X-91140419Y-29190476D02*
X-91092800Y-29142857D01*
X-91092800Y-29142857D02*
X-91045180Y-29047619D01*
X-91045180Y-29047619D02*
X-91045180Y-28857143D01*
X-91045180Y-28857143D02*
X-91092800Y-28761905D01*
X-91092800Y-28761905D02*
X-91140419Y-28714286D01*
X-91140419Y-28714286D02*
X-91235657Y-28666667D01*
X-91235657Y-28666667D02*
X-91473752Y-28666667D01*
X-91473752Y-28666667D02*
X-91568990Y-28714286D01*
X-91568990Y-28714286D02*
X-91616609Y-28761905D01*
X-91616609Y-28761905D02*
X-91664228Y-28857143D01*
X-91664228Y-28857143D02*
X-91664228Y-29047619D01*
X-91664228Y-29047619D02*
X-91616609Y-29142857D01*
X-91616609Y-29142857D02*
X-91568990Y-29190476D01*
X-91568990Y-29190476D02*
X-91473752Y-29238095D01*
X-91616609Y-28095238D02*
X-91664228Y-28190476D01*
X-91664228Y-28190476D02*
X-91711847Y-28238095D01*
X-91711847Y-28238095D02*
X-91807085Y-28285714D01*
X-91807085Y-28285714D02*
X-91854704Y-28285714D01*
X-91854704Y-28285714D02*
X-91949942Y-28238095D01*
X-91949942Y-28238095D02*
X-91997561Y-28190476D01*
X-91997561Y-28190476D02*
X-92045180Y-28095238D01*
X-92045180Y-28095238D02*
X-92045180Y-27904762D01*
X-92045180Y-27904762D02*
X-91997561Y-27809524D01*
X-91997561Y-27809524D02*
X-91949942Y-27761905D01*
X-91949942Y-27761905D02*
X-91854704Y-27714286D01*
X-91854704Y-27714286D02*
X-91807085Y-27714286D01*
X-91807085Y-27714286D02*
X-91711847Y-27761905D01*
X-91711847Y-27761905D02*
X-91664228Y-27809524D01*
X-91664228Y-27809524D02*
X-91616609Y-27904762D01*
X-91616609Y-27904762D02*
X-91616609Y-28095238D01*
X-91616609Y-28095238D02*
X-91568990Y-28190476D01*
X-91568990Y-28190476D02*
X-91521371Y-28238095D01*
X-91521371Y-28238095D02*
X-91426133Y-28285714D01*
X-91426133Y-28285714D02*
X-91235657Y-28285714D01*
X-91235657Y-28285714D02*
X-91140419Y-28238095D01*
X-91140419Y-28238095D02*
X-91092800Y-28190476D01*
X-91092800Y-28190476D02*
X-91045180Y-28095238D01*
X-91045180Y-28095238D02*
X-91045180Y-27904762D01*
X-91045180Y-27904762D02*
X-91092800Y-27809524D01*
X-91092800Y-27809524D02*
X-91140419Y-27761905D01*
X-91140419Y-27761905D02*
X-91235657Y-27714286D01*
X-91235657Y-27714286D02*
X-91426133Y-27714286D01*
X-91426133Y-27714286D02*
X-91521371Y-27761905D01*
X-91521371Y-27761905D02*
X-91568990Y-27809524D01*
X-91568990Y-27809524D02*
X-91616609Y-27904762D01*
X-91092800Y-27333333D02*
X-91045180Y-27190476D01*
X-91045180Y-27190476D02*
X-91045180Y-26952381D01*
X-91045180Y-26952381D02*
X-91092800Y-26857143D01*
X-91092800Y-26857143D02*
X-91140419Y-26809524D01*
X-91140419Y-26809524D02*
X-91235657Y-26761905D01*
X-91235657Y-26761905D02*
X-91330895Y-26761905D01*
X-91330895Y-26761905D02*
X-91426133Y-26809524D01*
X-91426133Y-26809524D02*
X-91473752Y-26857143D01*
X-91473752Y-26857143D02*
X-91521371Y-26952381D01*
X-91521371Y-26952381D02*
X-91568990Y-27142857D01*
X-91568990Y-27142857D02*
X-91616609Y-27238095D01*
X-91616609Y-27238095D02*
X-91664228Y-27285714D01*
X-91664228Y-27285714D02*
X-91759466Y-27333333D01*
X-91759466Y-27333333D02*
X-91854704Y-27333333D01*
X-91854704Y-27333333D02*
X-91949942Y-27285714D01*
X-91949942Y-27285714D02*
X-91997561Y-27238095D01*
X-91997561Y-27238095D02*
X-92045180Y-27142857D01*
X-92045180Y-27142857D02*
X-92045180Y-26904762D01*
X-92045180Y-26904762D02*
X-91997561Y-26761905D01*
X-91711847Y-26476190D02*
X-91711847Y-26095238D01*
X-92045180Y-26333333D02*
X-91188038Y-26333333D01*
X-91188038Y-26333333D02*
X-91092800Y-26285714D01*
X-91092800Y-26285714D02*
X-91045180Y-26190476D01*
X-91045180Y-26190476D02*
X-91045180Y-26095238D01*
X-91092800Y-25380952D02*
X-91045180Y-25476190D01*
X-91045180Y-25476190D02*
X-91045180Y-25666666D01*
X-91045180Y-25666666D02*
X-91092800Y-25761904D01*
X-91092800Y-25761904D02*
X-91188038Y-25809523D01*
X-91188038Y-25809523D02*
X-91568990Y-25809523D01*
X-91568990Y-25809523D02*
X-91664228Y-25761904D01*
X-91664228Y-25761904D02*
X-91711847Y-25666666D01*
X-91711847Y-25666666D02*
X-91711847Y-25476190D01*
X-91711847Y-25476190D02*
X-91664228Y-25380952D01*
X-91664228Y-25380952D02*
X-91568990Y-25333333D01*
X-91568990Y-25333333D02*
X-91473752Y-25333333D01*
X-91473752Y-25333333D02*
X-91378514Y-25809523D01*
X-91711847Y-24904761D02*
X-90711847Y-24904761D01*
X-91664228Y-24904761D02*
X-91711847Y-24809523D01*
X-91711847Y-24809523D02*
X-91711847Y-24619047D01*
X-91711847Y-24619047D02*
X-91664228Y-24523809D01*
X-91664228Y-24523809D02*
X-91616609Y-24476190D01*
X-91616609Y-24476190D02*
X-91521371Y-24428571D01*
X-91521371Y-24428571D02*
X-91235657Y-24428571D01*
X-91235657Y-24428571D02*
X-91140419Y-24476190D01*
X-91140419Y-24476190D02*
X-91092800Y-24523809D01*
X-91092800Y-24523809D02*
X-91045180Y-24619047D01*
X-91045180Y-24619047D02*
X-91045180Y-24809523D01*
X-91045180Y-24809523D02*
X-91092800Y-24904761D01*
X-91711847Y-23999999D02*
X-90711847Y-23999999D01*
X-91664228Y-23999999D02*
X-91711847Y-23904761D01*
X-91711847Y-23904761D02*
X-91711847Y-23714285D01*
X-91711847Y-23714285D02*
X-91664228Y-23619047D01*
X-91664228Y-23619047D02*
X-91616609Y-23571428D01*
X-91616609Y-23571428D02*
X-91521371Y-23523809D01*
X-91521371Y-23523809D02*
X-91235657Y-23523809D01*
X-91235657Y-23523809D02*
X-91140419Y-23571428D01*
X-91140419Y-23571428D02*
X-91092800Y-23619047D01*
X-91092800Y-23619047D02*
X-91045180Y-23714285D01*
X-91045180Y-23714285D02*
X-91045180Y-23904761D01*
X-91045180Y-23904761D02*
X-91092800Y-23999999D01*
X-91092800Y-22714285D02*
X-91045180Y-22809523D01*
X-91045180Y-22809523D02*
X-91045180Y-22999999D01*
X-91045180Y-22999999D02*
X-91092800Y-23095237D01*
X-91092800Y-23095237D02*
X-91188038Y-23142856D01*
X-91188038Y-23142856D02*
X-91568990Y-23142856D01*
X-91568990Y-23142856D02*
X-91664228Y-23095237D01*
X-91664228Y-23095237D02*
X-91711847Y-22999999D01*
X-91711847Y-22999999D02*
X-91711847Y-22809523D01*
X-91711847Y-22809523D02*
X-91664228Y-22714285D01*
X-91664228Y-22714285D02*
X-91568990Y-22666666D01*
X-91568990Y-22666666D02*
X-91473752Y-22666666D01*
X-91473752Y-22666666D02*
X-91378514Y-23142856D01*
X-91045180Y-22238094D02*
X-91711847Y-22238094D01*
X-91521371Y-22238094D02*
X-91616609Y-22190475D01*
X-91616609Y-22190475D02*
X-91664228Y-22142856D01*
X-91664228Y-22142856D02*
X-91711847Y-22047618D01*
X-91711847Y-22047618D02*
X-91711847Y-21952380D01*
X-91045180Y-21619046D02*
X-92045180Y-21619046D01*
X-92045180Y-21619046D02*
X-91330895Y-21285713D01*
X-91330895Y-21285713D02*
X-92045180Y-20952380D01*
X-92045180Y-20952380D02*
X-91045180Y-20952380D01*
X-91045180Y-20333332D02*
X-91092800Y-20428570D01*
X-91092800Y-20428570D02*
X-91140419Y-20476189D01*
X-91140419Y-20476189D02*
X-91235657Y-20523808D01*
X-91235657Y-20523808D02*
X-91521371Y-20523808D01*
X-91521371Y-20523808D02*
X-91616609Y-20476189D01*
X-91616609Y-20476189D02*
X-91664228Y-20428570D01*
X-91664228Y-20428570D02*
X-91711847Y-20333332D01*
X-91711847Y-20333332D02*
X-91711847Y-20190475D01*
X-91711847Y-20190475D02*
X-91664228Y-20095237D01*
X-91664228Y-20095237D02*
X-91616609Y-20047618D01*
X-91616609Y-20047618D02*
X-91521371Y-19999999D01*
X-91521371Y-19999999D02*
X-91235657Y-19999999D01*
X-91235657Y-19999999D02*
X-91140419Y-20047618D01*
X-91140419Y-20047618D02*
X-91092800Y-20095237D01*
X-91092800Y-20095237D02*
X-91045180Y-20190475D01*
X-91045180Y-20190475D02*
X-91045180Y-20333332D01*
X-91711847Y-19714284D02*
X-91711847Y-19333332D01*
X-92045180Y-19571427D02*
X-91188038Y-19571427D01*
X-91188038Y-19571427D02*
X-91092800Y-19523808D01*
X-91092800Y-19523808D02*
X-91045180Y-19428570D01*
X-91045180Y-19428570D02*
X-91045180Y-19333332D01*
X-91045180Y-18857141D02*
X-91092800Y-18952379D01*
X-91092800Y-18952379D02*
X-91140419Y-18999998D01*
X-91140419Y-18999998D02*
X-91235657Y-19047617D01*
X-91235657Y-19047617D02*
X-91521371Y-19047617D01*
X-91521371Y-19047617D02*
X-91616609Y-18999998D01*
X-91616609Y-18999998D02*
X-91664228Y-18952379D01*
X-91664228Y-18952379D02*
X-91711847Y-18857141D01*
X-91711847Y-18857141D02*
X-91711847Y-18714284D01*
X-91711847Y-18714284D02*
X-91664228Y-18619046D01*
X-91664228Y-18619046D02*
X-91616609Y-18571427D01*
X-91616609Y-18571427D02*
X-91521371Y-18523808D01*
X-91521371Y-18523808D02*
X-91235657Y-18523808D01*
X-91235657Y-18523808D02*
X-91140419Y-18571427D01*
X-91140419Y-18571427D02*
X-91092800Y-18619046D01*
X-91092800Y-18619046D02*
X-91045180Y-18714284D01*
X-91045180Y-18714284D02*
X-91045180Y-18857141D01*
X-91045180Y-18095236D02*
X-91711847Y-18095236D01*
X-91521371Y-18095236D02*
X-91616609Y-18047617D01*
X-91616609Y-18047617D02*
X-91664228Y-17999998D01*
X-91664228Y-17999998D02*
X-91711847Y-17904760D01*
X-91711847Y-17904760D02*
X-91711847Y-17809522D01*
X-91045180Y-16952379D02*
X-91045180Y-17523807D01*
X-91045180Y-17238093D02*
X-92045180Y-17238093D01*
X-92045180Y-17238093D02*
X-91902323Y-17333331D01*
X-91902323Y-17333331D02*
X-91807085Y-17428569D01*
X-91807085Y-17428569D02*
X-91759466Y-17523807D01*
X-58182142Y-33454819D02*
X-57563095Y-33454819D01*
X-57563095Y-33454819D02*
X-57896428Y-33835771D01*
X-57896428Y-33835771D02*
X-57753571Y-33835771D01*
X-57753571Y-33835771D02*
X-57658333Y-33883390D01*
X-57658333Y-33883390D02*
X-57610714Y-33931009D01*
X-57610714Y-33931009D02*
X-57563095Y-34026247D01*
X-57563095Y-34026247D02*
X-57563095Y-34264342D01*
X-57563095Y-34264342D02*
X-57610714Y-34359580D01*
X-57610714Y-34359580D02*
X-57658333Y-34407200D01*
X-57658333Y-34407200D02*
X-57753571Y-34454819D01*
X-57753571Y-34454819D02*
X-58039285Y-34454819D01*
X-58039285Y-34454819D02*
X-58134523Y-34407200D01*
X-58134523Y-34407200D02*
X-58182142Y-34359580D01*
X-57229761Y-33454819D02*
X-56610714Y-33454819D01*
X-56610714Y-33454819D02*
X-56944047Y-33835771D01*
X-56944047Y-33835771D02*
X-56801190Y-33835771D01*
X-56801190Y-33835771D02*
X-56705952Y-33883390D01*
X-56705952Y-33883390D02*
X-56658333Y-33931009D01*
X-56658333Y-33931009D02*
X-56610714Y-34026247D01*
X-56610714Y-34026247D02*
X-56610714Y-34264342D01*
X-56610714Y-34264342D02*
X-56658333Y-34359580D01*
X-56658333Y-34359580D02*
X-56705952Y-34407200D01*
X-56705952Y-34407200D02*
X-56801190Y-34454819D01*
X-56801190Y-34454819D02*
X-57086904Y-34454819D01*
X-57086904Y-34454819D02*
X-57182142Y-34407200D01*
X-57182142Y-34407200D02*
X-57229761Y-34359580D01*
X-55991666Y-33454819D02*
X-55896428Y-33454819D01*
X-55896428Y-33454819D02*
X-55801190Y-33502438D01*
X-55801190Y-33502438D02*
X-55753571Y-33550057D01*
X-55753571Y-33550057D02*
X-55705952Y-33645295D01*
X-55705952Y-33645295D02*
X-55658333Y-33835771D01*
X-55658333Y-33835771D02*
X-55658333Y-34073866D01*
X-55658333Y-34073866D02*
X-55705952Y-34264342D01*
X-55705952Y-34264342D02*
X-55753571Y-34359580D01*
X-55753571Y-34359580D02*
X-55801190Y-34407200D01*
X-55801190Y-34407200D02*
X-55896428Y-34454819D01*
X-55896428Y-34454819D02*
X-55991666Y-34454819D01*
X-55991666Y-34454819D02*
X-56086904Y-34407200D01*
X-56086904Y-34407200D02*
X-56134523Y-34359580D01*
X-56134523Y-34359580D02*
X-56182142Y-34264342D01*
X-56182142Y-34264342D02*
X-56229761Y-34073866D01*
X-56229761Y-34073866D02*
X-56229761Y-33835771D01*
X-56229761Y-33835771D02*
X-56182142Y-33645295D01*
X-56182142Y-33645295D02*
X-56134523Y-33550057D01*
X-56134523Y-33550057D02*
X-56086904Y-33502438D01*
X-56086904Y-33502438D02*
X-55991666Y-33454819D01*
X-55086904Y-34454819D02*
X-55182142Y-34407200D01*
X-55182142Y-34407200D02*
X-55229761Y-34359580D01*
X-55229761Y-34359580D02*
X-55277380Y-34264342D01*
X-55277380Y-34264342D02*
X-55277380Y-33978628D01*
X-55277380Y-33978628D02*
X-55229761Y-33883390D01*
X-55229761Y-33883390D02*
X-55182142Y-33835771D01*
X-55182142Y-33835771D02*
X-55086904Y-33788152D01*
X-55086904Y-33788152D02*
X-54944047Y-33788152D01*
X-54944047Y-33788152D02*
X-54848809Y-33835771D01*
X-54848809Y-33835771D02*
X-54801190Y-33883390D01*
X-54801190Y-33883390D02*
X-54753571Y-33978628D01*
X-54753571Y-33978628D02*
X-54753571Y-34264342D01*
X-54753571Y-34264342D02*
X-54801190Y-34359580D01*
X-54801190Y-34359580D02*
X-54848809Y-34407200D01*
X-54848809Y-34407200D02*
X-54944047Y-34454819D01*
X-54944047Y-34454819D02*
X-55086904Y-34454819D01*
X-54324999Y-34454819D02*
X-54324999Y-33454819D01*
X-53896428Y-34454819D02*
X-53896428Y-33931009D01*
X-53896428Y-33931009D02*
X-53944047Y-33835771D01*
X-53944047Y-33835771D02*
X-54039285Y-33788152D01*
X-54039285Y-33788152D02*
X-54182142Y-33788152D01*
X-54182142Y-33788152D02*
X-54277380Y-33835771D01*
X-54277380Y-33835771D02*
X-54324999Y-33883390D01*
X-53420237Y-34454819D02*
X-53420237Y-33788152D01*
X-53420237Y-33883390D02*
X-53372618Y-33835771D01*
X-53372618Y-33835771D02*
X-53277380Y-33788152D01*
X-53277380Y-33788152D02*
X-53134523Y-33788152D01*
X-53134523Y-33788152D02*
X-53039285Y-33835771D01*
X-53039285Y-33835771D02*
X-52991666Y-33931009D01*
X-52991666Y-33931009D02*
X-52991666Y-34454819D01*
X-52991666Y-33931009D02*
X-52944047Y-33835771D01*
X-52944047Y-33835771D02*
X-52848809Y-33788152D01*
X-52848809Y-33788152D02*
X-52705952Y-33788152D01*
X-52705952Y-33788152D02*
X-52610713Y-33835771D01*
X-52610713Y-33835771D02*
X-52563094Y-33931009D01*
X-52563094Y-33931009D02*
X-52563094Y-34454819D01*
X-54045180Y-31666666D02*
X-53045180Y-31428571D01*
X-53045180Y-31428571D02*
X-53759466Y-31238095D01*
X-53759466Y-31238095D02*
X-53045180Y-31047619D01*
X-53045180Y-31047619D02*
X-54045180Y-30809524D01*
X-53092800Y-30476190D02*
X-53045180Y-30333333D01*
X-53045180Y-30333333D02*
X-53045180Y-30095238D01*
X-53045180Y-30095238D02*
X-53092800Y-30000000D01*
X-53092800Y-30000000D02*
X-53140419Y-29952381D01*
X-53140419Y-29952381D02*
X-53235657Y-29904762D01*
X-53235657Y-29904762D02*
X-53330895Y-29904762D01*
X-53330895Y-29904762D02*
X-53426133Y-29952381D01*
X-53426133Y-29952381D02*
X-53473752Y-30000000D01*
X-53473752Y-30000000D02*
X-53521371Y-30095238D01*
X-53521371Y-30095238D02*
X-53568990Y-30285714D01*
X-53568990Y-30285714D02*
X-53616609Y-30380952D01*
X-53616609Y-30380952D02*
X-53664228Y-30428571D01*
X-53664228Y-30428571D02*
X-53759466Y-30476190D01*
X-53759466Y-30476190D02*
X-53854704Y-30476190D01*
X-53854704Y-30476190D02*
X-53949942Y-30428571D01*
X-53949942Y-30428571D02*
X-53997561Y-30380952D01*
X-53997561Y-30380952D02*
X-54045180Y-30285714D01*
X-54045180Y-30285714D02*
X-54045180Y-30047619D01*
X-54045180Y-30047619D02*
X-53997561Y-29904762D01*
X-53949942Y-29523809D02*
X-53997561Y-29476190D01*
X-53997561Y-29476190D02*
X-54045180Y-29380952D01*
X-54045180Y-29380952D02*
X-54045180Y-29142857D01*
X-54045180Y-29142857D02*
X-53997561Y-29047619D01*
X-53997561Y-29047619D02*
X-53949942Y-29000000D01*
X-53949942Y-29000000D02*
X-53854704Y-28952381D01*
X-53854704Y-28952381D02*
X-53759466Y-28952381D01*
X-53759466Y-28952381D02*
X-53616609Y-29000000D01*
X-53616609Y-29000000D02*
X-53045180Y-29571428D01*
X-53045180Y-29571428D02*
X-53045180Y-28952381D01*
X-53616609Y-28380952D02*
X-53664228Y-28476190D01*
X-53664228Y-28476190D02*
X-53711847Y-28523809D01*
X-53711847Y-28523809D02*
X-53807085Y-28571428D01*
X-53807085Y-28571428D02*
X-53854704Y-28571428D01*
X-53854704Y-28571428D02*
X-53949942Y-28523809D01*
X-53949942Y-28523809D02*
X-53997561Y-28476190D01*
X-53997561Y-28476190D02*
X-54045180Y-28380952D01*
X-54045180Y-28380952D02*
X-54045180Y-28190476D01*
X-54045180Y-28190476D02*
X-53997561Y-28095238D01*
X-53997561Y-28095238D02*
X-53949942Y-28047619D01*
X-53949942Y-28047619D02*
X-53854704Y-28000000D01*
X-53854704Y-28000000D02*
X-53807085Y-28000000D01*
X-53807085Y-28000000D02*
X-53711847Y-28047619D01*
X-53711847Y-28047619D02*
X-53664228Y-28095238D01*
X-53664228Y-28095238D02*
X-53616609Y-28190476D01*
X-53616609Y-28190476D02*
X-53616609Y-28380952D01*
X-53616609Y-28380952D02*
X-53568990Y-28476190D01*
X-53568990Y-28476190D02*
X-53521371Y-28523809D01*
X-53521371Y-28523809D02*
X-53426133Y-28571428D01*
X-53426133Y-28571428D02*
X-53235657Y-28571428D01*
X-53235657Y-28571428D02*
X-53140419Y-28523809D01*
X-53140419Y-28523809D02*
X-53092800Y-28476190D01*
X-53092800Y-28476190D02*
X-53045180Y-28380952D01*
X-53045180Y-28380952D02*
X-53045180Y-28190476D01*
X-53045180Y-28190476D02*
X-53092800Y-28095238D01*
X-53092800Y-28095238D02*
X-53140419Y-28047619D01*
X-53140419Y-28047619D02*
X-53235657Y-28000000D01*
X-53235657Y-28000000D02*
X-53426133Y-28000000D01*
X-53426133Y-28000000D02*
X-53521371Y-28047619D01*
X-53521371Y-28047619D02*
X-53568990Y-28095238D01*
X-53568990Y-28095238D02*
X-53616609Y-28190476D01*
X-53045180Y-27047619D02*
X-53045180Y-27619047D01*
X-53045180Y-27333333D02*
X-54045180Y-27333333D01*
X-54045180Y-27333333D02*
X-53902323Y-27428571D01*
X-53902323Y-27428571D02*
X-53807085Y-27523809D01*
X-53807085Y-27523809D02*
X-53759466Y-27619047D01*
X-53949942Y-26666666D02*
X-53997561Y-26619047D01*
X-53997561Y-26619047D02*
X-54045180Y-26523809D01*
X-54045180Y-26523809D02*
X-54045180Y-26285714D01*
X-54045180Y-26285714D02*
X-53997561Y-26190476D01*
X-53997561Y-26190476D02*
X-53949942Y-26142857D01*
X-53949942Y-26142857D02*
X-53854704Y-26095238D01*
X-53854704Y-26095238D02*
X-53759466Y-26095238D01*
X-53759466Y-26095238D02*
X-53616609Y-26142857D01*
X-53616609Y-26142857D02*
X-53045180Y-26714285D01*
X-53045180Y-26714285D02*
X-53045180Y-26095238D01*
X-53568990Y-25333333D02*
X-53521371Y-25190476D01*
X-53521371Y-25190476D02*
X-53473752Y-25142857D01*
X-53473752Y-25142857D02*
X-53378514Y-25095238D01*
X-53378514Y-25095238D02*
X-53235657Y-25095238D01*
X-53235657Y-25095238D02*
X-53140419Y-25142857D01*
X-53140419Y-25142857D02*
X-53092800Y-25190476D01*
X-53092800Y-25190476D02*
X-53045180Y-25285714D01*
X-53045180Y-25285714D02*
X-53045180Y-25666666D01*
X-53045180Y-25666666D02*
X-54045180Y-25666666D01*
X-54045180Y-25666666D02*
X-54045180Y-25333333D01*
X-54045180Y-25333333D02*
X-53997561Y-25238095D01*
X-53997561Y-25238095D02*
X-53949942Y-25190476D01*
X-53949942Y-25190476D02*
X-53854704Y-25142857D01*
X-53854704Y-25142857D02*
X-53759466Y-25142857D01*
X-53759466Y-25142857D02*
X-53664228Y-25190476D01*
X-53664228Y-25190476D02*
X-53616609Y-25238095D01*
X-53616609Y-25238095D02*
X-53568990Y-25333333D01*
X-53568990Y-25333333D02*
X-53568990Y-25666666D01*
X-53045180Y-24190476D02*
X-53045180Y-24666666D01*
X-53045180Y-24666666D02*
X-54045180Y-24666666D01*
X-53568990Y-23857142D02*
X-53568990Y-23523809D01*
X-53045180Y-23380952D02*
X-53045180Y-23857142D01*
X-53045180Y-23857142D02*
X-54045180Y-23857142D01*
X-54045180Y-23857142D02*
X-54045180Y-23380952D01*
X-53045180Y-22952380D02*
X-54045180Y-22952380D01*
X-54045180Y-22952380D02*
X-54045180Y-22714285D01*
X-54045180Y-22714285D02*
X-53997561Y-22571428D01*
X-53997561Y-22571428D02*
X-53902323Y-22476190D01*
X-53902323Y-22476190D02*
X-53807085Y-22428571D01*
X-53807085Y-22428571D02*
X-53616609Y-22380952D01*
X-53616609Y-22380952D02*
X-53473752Y-22380952D01*
X-53473752Y-22380952D02*
X-53283276Y-22428571D01*
X-53283276Y-22428571D02*
X-53188038Y-22476190D01*
X-53188038Y-22476190D02*
X-53092800Y-22571428D01*
X-53092800Y-22571428D02*
X-53045180Y-22714285D01*
X-53045180Y-22714285D02*
X-53045180Y-22952380D01*
D12*
%TO.C,Button*%
X-65880000Y-45920000D02*
X-65880000Y-44540000D01*
X-64500000Y-45920000D02*
X-65880000Y-45920000D01*
X-63230000Y-45920000D02*
X-60580000Y-45920000D01*
X-63230000Y-45920000D02*
X-63230000Y-43160000D01*
X-60580000Y-45920000D02*
X-60580000Y-43160000D01*
X-63230000Y-43160000D02*
X-60580000Y-43160000D01*
%TO.C,U1*%
X-65512500Y-36920000D02*
X-65512500Y-37490000D01*
X-65512500Y-34380000D02*
X-65512500Y-35400000D01*
X-65512500Y-31840000D02*
X-65512500Y-32860000D01*
X-65512500Y-29300000D02*
X-65512500Y-30320000D01*
X-65512500Y-26760000D02*
X-65512500Y-27780000D01*
X-65512500Y-24220000D02*
X-65512500Y-25240000D01*
X-65512500Y-21680000D02*
X-65512500Y-22700000D01*
X-65512500Y-19590000D02*
X-65512500Y-20160000D01*
X-80687500Y-37490000D02*
X-65512500Y-37490000D01*
X-80687500Y-36920000D02*
X-80687500Y-37490000D01*
X-80687500Y-34380000D02*
X-80687500Y-35400000D01*
X-80687500Y-31840000D02*
X-80687500Y-32860000D01*
X-80687500Y-29300000D02*
X-80687500Y-30320000D01*
X-80687500Y-26760000D02*
X-80687500Y-27780000D01*
X-80687500Y-24220000D02*
X-80687500Y-25240000D01*
X-80687500Y-21680000D02*
X-80687500Y-22700000D01*
X-80687500Y-19590000D02*
X-65512500Y-19590000D01*
X-80687500Y-19590000D02*
X-80687500Y-20160000D01*
X-82127500Y-20160000D02*
X-80687500Y-20160000D01*
%TO.C,J_BATT1*%
X-74940000Y-45910000D02*
X-74940000Y-41190000D01*
X-74940000Y-43800000D02*
X-75550000Y-43800000D01*
X-74940000Y-42500000D02*
X-75550000Y-42500000D01*
X-74940000Y-41190000D02*
X-81060000Y-41190000D01*
X-75550000Y-45300000D02*
X-75550000Y-41800000D01*
X-75550000Y-41800000D02*
X-77500000Y-41800000D01*
X-77500000Y-41800000D02*
X-77500000Y-41190000D01*
X-77900000Y-44800000D02*
X-77900000Y-45300000D01*
X-78000000Y-45300000D02*
X-78000000Y-44800000D01*
X-78100000Y-45300000D02*
X-78100000Y-44800000D01*
X-78100000Y-44800000D02*
X-77900000Y-44800000D01*
X-78500000Y-41800000D02*
X-80450000Y-41800000D01*
X-78500000Y-41190000D02*
X-78500000Y-41800000D01*
X-79300000Y-41190000D02*
X-79300000Y-40990000D01*
X-79300000Y-41090000D02*
X-79600000Y-41090000D01*
X-79300000Y-40990000D02*
X-79600000Y-40990000D01*
X-79600000Y-40990000D02*
X-79600000Y-41190000D01*
X-80110000Y-40890000D02*
X-81360000Y-40890000D01*
X-80450000Y-45300000D02*
X-75550000Y-45300000D01*
X-80450000Y-41800000D02*
X-80450000Y-45300000D01*
X-81060000Y-45910000D02*
X-74940000Y-45910000D01*
X-81060000Y-43800000D02*
X-80450000Y-43800000D01*
X-81060000Y-42500000D02*
X-80450000Y-42500000D01*
X-81060000Y-41190000D02*
X-81060000Y-45910000D01*
X-81360000Y-40890000D02*
X-81360000Y-42140000D01*
%TO.C,OLED*%
X-97120000Y-37270000D02*
X-97120000Y-45000000D01*
X-99880000Y-45000000D02*
X-97120000Y-45000000D01*
X-99880000Y-37270000D02*
X-97120000Y-37270000D01*
X-99880000Y-37270000D02*
X-99880000Y-45000000D01*
X-99880000Y-36000000D02*
X-99880000Y-34620000D01*
X-99880000Y-34620000D02*
X-98500000Y-34620000D01*
%TO.C,X27168StepperMotor1*%
X-99880000Y-27270000D02*
X-99880000Y-19540000D01*
X-97120000Y-19540000D02*
X-99880000Y-19540000D01*
X-97120000Y-27270000D02*
X-99880000Y-27270000D01*
X-97120000Y-27270000D02*
X-97120000Y-19540000D01*
X-97120000Y-28540000D02*
X-97120000Y-29920000D01*
X-97120000Y-29920000D02*
X-98500000Y-29920000D01*
%TO.C,330ohm*%
X-55562258Y-37062500D02*
X-55087742Y-37062500D01*
X-55562258Y-36017500D02*
X-55087742Y-36017500D01*
%TO.C,WS2812BLED*%
X-49880000Y-30270000D02*
X-49880000Y-22540000D01*
X-47120000Y-22540000D02*
X-49880000Y-22540000D01*
X-47120000Y-30270000D02*
X-49880000Y-30270000D01*
X-47120000Y-30270000D02*
X-47120000Y-22540000D01*
X-47120000Y-31540000D02*
X-47120000Y-32920000D01*
X-47120000Y-32920000D02*
X-48500000Y-32920000D01*
%TD*%
M02*
