%TF.GenerationSoftware,KiCad,Pcbnew,9.0.6*%
%TF.CreationDate,2026-02-23T14:13:08-08:00*%
%TF.ProjectId,Final Project - Sensor Device,46696e61-6c20-4507-926f-6a656374202d,V1*%
%TF.SameCoordinates,Original*%
%TF.FileFunction,Legend,Top*%
%TF.FilePolarity,Positive*%
%FSLAX46Y46*%
G04 Gerber Fmt 4.6, Leading zero omitted, Abs format (unit mm)*
G04 Created by KiCad (PCBNEW 9.0.6) date 2026-02-23 14:13:08*
%MOMM*%
%LPD*%
G01*
G04 APERTURE LIST*
%ADD10C,0.200000*%
%ADD11C,0.150000*%
%ADD12C,0.120000*%
%ADD13C,0.127000*%
G04 APERTURE END LIST*
D10*
X135063035Y-129629000D02*
X135396368Y-130629000D01*
X135396368Y-130629000D02*
X135729701Y-129629000D01*
X136063035Y-130629000D02*
X136063035Y-129962333D01*
X136063035Y-129629000D02*
X136015416Y-129676619D01*
X136015416Y-129676619D02*
X136063035Y-129724238D01*
X136063035Y-129724238D02*
X136110654Y-129676619D01*
X136110654Y-129676619D02*
X136063035Y-129629000D01*
X136063035Y-129629000D02*
X136063035Y-129724238D01*
X136539225Y-130629000D02*
X136539225Y-129629000D01*
X136539225Y-130009952D02*
X136634463Y-129962333D01*
X136634463Y-129962333D02*
X136824939Y-129962333D01*
X136824939Y-129962333D02*
X136920177Y-130009952D01*
X136920177Y-130009952D02*
X136967796Y-130057571D01*
X136967796Y-130057571D02*
X137015415Y-130152809D01*
X137015415Y-130152809D02*
X137015415Y-130438523D01*
X137015415Y-130438523D02*
X136967796Y-130533761D01*
X136967796Y-130533761D02*
X136920177Y-130581381D01*
X136920177Y-130581381D02*
X136824939Y-130629000D01*
X136824939Y-130629000D02*
X136634463Y-130629000D01*
X136634463Y-130629000D02*
X136539225Y-130581381D01*
X137824939Y-130581381D02*
X137729701Y-130629000D01*
X137729701Y-130629000D02*
X137539225Y-130629000D01*
X137539225Y-130629000D02*
X137443987Y-130581381D01*
X137443987Y-130581381D02*
X137396368Y-130486142D01*
X137396368Y-130486142D02*
X137396368Y-130105190D01*
X137396368Y-130105190D02*
X137443987Y-130009952D01*
X137443987Y-130009952D02*
X137539225Y-129962333D01*
X137539225Y-129962333D02*
X137729701Y-129962333D01*
X137729701Y-129962333D02*
X137824939Y-130009952D01*
X137824939Y-130009952D02*
X137872558Y-130105190D01*
X137872558Y-130105190D02*
X137872558Y-130200428D01*
X137872558Y-130200428D02*
X137396368Y-130295666D01*
X139396368Y-130105190D02*
X139539225Y-130152809D01*
X139539225Y-130152809D02*
X139586844Y-130200428D01*
X139586844Y-130200428D02*
X139634463Y-130295666D01*
X139634463Y-130295666D02*
X139634463Y-130438523D01*
X139634463Y-130438523D02*
X139586844Y-130533761D01*
X139586844Y-130533761D02*
X139539225Y-130581381D01*
X139539225Y-130581381D02*
X139443987Y-130629000D01*
X139443987Y-130629000D02*
X139063035Y-130629000D01*
X139063035Y-130629000D02*
X139063035Y-129629000D01*
X139063035Y-129629000D02*
X139396368Y-129629000D01*
X139396368Y-129629000D02*
X139491606Y-129676619D01*
X139491606Y-129676619D02*
X139539225Y-129724238D01*
X139539225Y-129724238D02*
X139586844Y-129819476D01*
X139586844Y-129819476D02*
X139586844Y-129914714D01*
X139586844Y-129914714D02*
X139539225Y-130009952D01*
X139539225Y-130009952D02*
X139491606Y-130057571D01*
X139491606Y-130057571D02*
X139396368Y-130105190D01*
X139396368Y-130105190D02*
X139063035Y-130105190D01*
X140205892Y-130629000D02*
X140110654Y-130581381D01*
X140110654Y-130581381D02*
X140063035Y-130533761D01*
X140063035Y-130533761D02*
X140015416Y-130438523D01*
X140015416Y-130438523D02*
X140015416Y-130152809D01*
X140015416Y-130152809D02*
X140063035Y-130057571D01*
X140063035Y-130057571D02*
X140110654Y-130009952D01*
X140110654Y-130009952D02*
X140205892Y-129962333D01*
X140205892Y-129962333D02*
X140348749Y-129962333D01*
X140348749Y-129962333D02*
X140443987Y-130009952D01*
X140443987Y-130009952D02*
X140491606Y-130057571D01*
X140491606Y-130057571D02*
X140539225Y-130152809D01*
X140539225Y-130152809D02*
X140539225Y-130438523D01*
X140539225Y-130438523D02*
X140491606Y-130533761D01*
X140491606Y-130533761D02*
X140443987Y-130581381D01*
X140443987Y-130581381D02*
X140348749Y-130629000D01*
X140348749Y-130629000D02*
X140205892Y-130629000D01*
X140824940Y-129962333D02*
X141205892Y-129962333D01*
X140967797Y-129629000D02*
X140967797Y-130486142D01*
X140967797Y-130486142D02*
X141015416Y-130581381D01*
X141015416Y-130581381D02*
X141110654Y-130629000D01*
X141110654Y-130629000D02*
X141205892Y-130629000D01*
X142301131Y-130248047D02*
X143063036Y-130248047D01*
X144253512Y-130581381D02*
X144396369Y-130629000D01*
X144396369Y-130629000D02*
X144634464Y-130629000D01*
X144634464Y-130629000D02*
X144729702Y-130581381D01*
X144729702Y-130581381D02*
X144777321Y-130533761D01*
X144777321Y-130533761D02*
X144824940Y-130438523D01*
X144824940Y-130438523D02*
X144824940Y-130343285D01*
X144824940Y-130343285D02*
X144777321Y-130248047D01*
X144777321Y-130248047D02*
X144729702Y-130200428D01*
X144729702Y-130200428D02*
X144634464Y-130152809D01*
X144634464Y-130152809D02*
X144443988Y-130105190D01*
X144443988Y-130105190D02*
X144348750Y-130057571D01*
X144348750Y-130057571D02*
X144301131Y-130009952D01*
X144301131Y-130009952D02*
X144253512Y-129914714D01*
X144253512Y-129914714D02*
X144253512Y-129819476D01*
X144253512Y-129819476D02*
X144301131Y-129724238D01*
X144301131Y-129724238D02*
X144348750Y-129676619D01*
X144348750Y-129676619D02*
X144443988Y-129629000D01*
X144443988Y-129629000D02*
X144682083Y-129629000D01*
X144682083Y-129629000D02*
X144824940Y-129676619D01*
X145634464Y-130581381D02*
X145539226Y-130629000D01*
X145539226Y-130629000D02*
X145348750Y-130629000D01*
X145348750Y-130629000D02*
X145253512Y-130581381D01*
X145253512Y-130581381D02*
X145205893Y-130486142D01*
X145205893Y-130486142D02*
X145205893Y-130105190D01*
X145205893Y-130105190D02*
X145253512Y-130009952D01*
X145253512Y-130009952D02*
X145348750Y-129962333D01*
X145348750Y-129962333D02*
X145539226Y-129962333D01*
X145539226Y-129962333D02*
X145634464Y-130009952D01*
X145634464Y-130009952D02*
X145682083Y-130105190D01*
X145682083Y-130105190D02*
X145682083Y-130200428D01*
X145682083Y-130200428D02*
X145205893Y-130295666D01*
X146110655Y-129962333D02*
X146110655Y-130629000D01*
X146110655Y-130057571D02*
X146158274Y-130009952D01*
X146158274Y-130009952D02*
X146253512Y-129962333D01*
X146253512Y-129962333D02*
X146396369Y-129962333D01*
X146396369Y-129962333D02*
X146491607Y-130009952D01*
X146491607Y-130009952D02*
X146539226Y-130105190D01*
X146539226Y-130105190D02*
X146539226Y-130629000D01*
X146967798Y-130581381D02*
X147063036Y-130629000D01*
X147063036Y-130629000D02*
X147253512Y-130629000D01*
X147253512Y-130629000D02*
X147348750Y-130581381D01*
X147348750Y-130581381D02*
X147396369Y-130486142D01*
X147396369Y-130486142D02*
X147396369Y-130438523D01*
X147396369Y-130438523D02*
X147348750Y-130343285D01*
X147348750Y-130343285D02*
X147253512Y-130295666D01*
X147253512Y-130295666D02*
X147110655Y-130295666D01*
X147110655Y-130295666D02*
X147015417Y-130248047D01*
X147015417Y-130248047D02*
X146967798Y-130152809D01*
X146967798Y-130152809D02*
X146967798Y-130105190D01*
X146967798Y-130105190D02*
X147015417Y-130009952D01*
X147015417Y-130009952D02*
X147110655Y-129962333D01*
X147110655Y-129962333D02*
X147253512Y-129962333D01*
X147253512Y-129962333D02*
X147348750Y-130009952D01*
X147967798Y-130629000D02*
X147872560Y-130581381D01*
X147872560Y-130581381D02*
X147824941Y-130533761D01*
X147824941Y-130533761D02*
X147777322Y-130438523D01*
X147777322Y-130438523D02*
X147777322Y-130152809D01*
X147777322Y-130152809D02*
X147824941Y-130057571D01*
X147824941Y-130057571D02*
X147872560Y-130009952D01*
X147872560Y-130009952D02*
X147967798Y-129962333D01*
X147967798Y-129962333D02*
X148110655Y-129962333D01*
X148110655Y-129962333D02*
X148205893Y-130009952D01*
X148205893Y-130009952D02*
X148253512Y-130057571D01*
X148253512Y-130057571D02*
X148301131Y-130152809D01*
X148301131Y-130152809D02*
X148301131Y-130438523D01*
X148301131Y-130438523D02*
X148253512Y-130533761D01*
X148253512Y-130533761D02*
X148205893Y-130581381D01*
X148205893Y-130581381D02*
X148110655Y-130629000D01*
X148110655Y-130629000D02*
X147967798Y-130629000D01*
X148729703Y-130629000D02*
X148729703Y-129962333D01*
X148729703Y-130152809D02*
X148777322Y-130057571D01*
X148777322Y-130057571D02*
X148824941Y-130009952D01*
X148824941Y-130009952D02*
X148920179Y-129962333D01*
X148920179Y-129962333D02*
X149015417Y-129962333D01*
X150110656Y-130629000D02*
X150110656Y-129629000D01*
X150110656Y-129629000D02*
X150491608Y-129629000D01*
X150491608Y-129629000D02*
X150586846Y-129676619D01*
X150586846Y-129676619D02*
X150634465Y-129724238D01*
X150634465Y-129724238D02*
X150682084Y-129819476D01*
X150682084Y-129819476D02*
X150682084Y-129962333D01*
X150682084Y-129962333D02*
X150634465Y-130057571D01*
X150634465Y-130057571D02*
X150586846Y-130105190D01*
X150586846Y-130105190D02*
X150491608Y-130152809D01*
X150491608Y-130152809D02*
X150110656Y-130152809D01*
X151682084Y-130533761D02*
X151634465Y-130581381D01*
X151634465Y-130581381D02*
X151491608Y-130629000D01*
X151491608Y-130629000D02*
X151396370Y-130629000D01*
X151396370Y-130629000D02*
X151253513Y-130581381D01*
X151253513Y-130581381D02*
X151158275Y-130486142D01*
X151158275Y-130486142D02*
X151110656Y-130390904D01*
X151110656Y-130390904D02*
X151063037Y-130200428D01*
X151063037Y-130200428D02*
X151063037Y-130057571D01*
X151063037Y-130057571D02*
X151110656Y-129867095D01*
X151110656Y-129867095D02*
X151158275Y-129771857D01*
X151158275Y-129771857D02*
X151253513Y-129676619D01*
X151253513Y-129676619D02*
X151396370Y-129629000D01*
X151396370Y-129629000D02*
X151491608Y-129629000D01*
X151491608Y-129629000D02*
X151634465Y-129676619D01*
X151634465Y-129676619D02*
X151682084Y-129724238D01*
X152443989Y-130105190D02*
X152586846Y-130152809D01*
X152586846Y-130152809D02*
X152634465Y-130200428D01*
X152634465Y-130200428D02*
X152682084Y-130295666D01*
X152682084Y-130295666D02*
X152682084Y-130438523D01*
X152682084Y-130438523D02*
X152634465Y-130533761D01*
X152634465Y-130533761D02*
X152586846Y-130581381D01*
X152586846Y-130581381D02*
X152491608Y-130629000D01*
X152491608Y-130629000D02*
X152110656Y-130629000D01*
X152110656Y-130629000D02*
X152110656Y-129629000D01*
X152110656Y-129629000D02*
X152443989Y-129629000D01*
X152443989Y-129629000D02*
X152539227Y-129676619D01*
X152539227Y-129676619D02*
X152586846Y-129724238D01*
X152586846Y-129724238D02*
X152634465Y-129819476D01*
X152634465Y-129819476D02*
X152634465Y-129914714D01*
X152634465Y-129914714D02*
X152586846Y-130009952D01*
X152586846Y-130009952D02*
X152539227Y-130057571D01*
X152539227Y-130057571D02*
X152443989Y-130105190D01*
X152443989Y-130105190D02*
X152110656Y-130105190D01*
D11*
X133479076Y-137121361D02*
X133431457Y-137168981D01*
X133431457Y-137168981D02*
X133288600Y-137216600D01*
X133288600Y-137216600D02*
X133193362Y-137216600D01*
X133193362Y-137216600D02*
X133050505Y-137168981D01*
X133050505Y-137168981D02*
X132955267Y-137073742D01*
X132955267Y-137073742D02*
X132907648Y-136978504D01*
X132907648Y-136978504D02*
X132860029Y-136788028D01*
X132860029Y-136788028D02*
X132860029Y-136645171D01*
X132860029Y-136645171D02*
X132907648Y-136454695D01*
X132907648Y-136454695D02*
X132955267Y-136359457D01*
X132955267Y-136359457D02*
X133050505Y-136264219D01*
X133050505Y-136264219D02*
X133193362Y-136216600D01*
X133193362Y-136216600D02*
X133288600Y-136216600D01*
X133288600Y-136216600D02*
X133431457Y-136264219D01*
X133431457Y-136264219D02*
X133479076Y-136311838D01*
X133669553Y-137311838D02*
X134431457Y-137311838D01*
X134669553Y-137216600D02*
X134669553Y-136216600D01*
X134669553Y-136216600D02*
X135002886Y-136930885D01*
X135002886Y-136930885D02*
X135336219Y-136216600D01*
X135336219Y-136216600D02*
X135336219Y-137216600D01*
X135812410Y-137216600D02*
X135812410Y-136216600D01*
X136860028Y-137121361D02*
X136812409Y-137168981D01*
X136812409Y-137168981D02*
X136669552Y-137216600D01*
X136669552Y-137216600D02*
X136574314Y-137216600D01*
X136574314Y-137216600D02*
X136431457Y-137168981D01*
X136431457Y-137168981D02*
X136336219Y-137073742D01*
X136336219Y-137073742D02*
X136288600Y-136978504D01*
X136288600Y-136978504D02*
X136240981Y-136788028D01*
X136240981Y-136788028D02*
X136240981Y-136645171D01*
X136240981Y-136645171D02*
X136288600Y-136454695D01*
X136288600Y-136454695D02*
X136336219Y-136359457D01*
X136336219Y-136359457D02*
X136431457Y-136264219D01*
X136431457Y-136264219D02*
X136574314Y-136216600D01*
X136574314Y-136216600D02*
X136669552Y-136216600D01*
X136669552Y-136216600D02*
X136812409Y-136264219D01*
X136812409Y-136264219D02*
X136860028Y-136311838D01*
X137812409Y-137216600D02*
X137240981Y-137216600D01*
X137526695Y-137216600D02*
X137526695Y-136216600D01*
X137526695Y-136216600D02*
X137431457Y-136359457D01*
X137431457Y-136359457D02*
X137336219Y-136454695D01*
X137336219Y-136454695D02*
X137240981Y-136502314D01*
X141270514Y-137328923D02*
X140470514Y-137328923D01*
X141270514Y-136947971D02*
X140470514Y-136947971D01*
X140470514Y-136947971D02*
X141270514Y-136490828D01*
X141270514Y-136490828D02*
X140470514Y-136490828D01*
X141270514Y-136109876D02*
X140470514Y-136109876D01*
X140470514Y-136109876D02*
X141041942Y-135843210D01*
X141041942Y-135843210D02*
X140470514Y-135576543D01*
X140470514Y-135576543D02*
X141270514Y-135576543D01*
X141270514Y-135195590D02*
X140470514Y-135195590D01*
X140470514Y-135195590D02*
X140470514Y-134890828D01*
X140470514Y-134890828D02*
X140508609Y-134814638D01*
X140508609Y-134814638D02*
X140546704Y-134776543D01*
X140546704Y-134776543D02*
X140622895Y-134738447D01*
X140622895Y-134738447D02*
X140737180Y-134738447D01*
X140737180Y-134738447D02*
X140813371Y-134776543D01*
X140813371Y-134776543D02*
X140851466Y-134814638D01*
X140851466Y-134814638D02*
X140889561Y-134890828D01*
X140889561Y-134890828D02*
X140889561Y-135195590D01*
X141270514Y-133976543D02*
X141270514Y-134433686D01*
X141270514Y-134205114D02*
X140470514Y-134205114D01*
X140470514Y-134205114D02*
X140584799Y-134281305D01*
X140584799Y-134281305D02*
X140660990Y-134357495D01*
X140660990Y-134357495D02*
X140699085Y-134433686D01*
X143074314Y-147666600D02*
X143074314Y-148476123D01*
X143074314Y-148476123D02*
X143121933Y-148571361D01*
X143121933Y-148571361D02*
X143169552Y-148618981D01*
X143169552Y-148618981D02*
X143264790Y-148666600D01*
X143264790Y-148666600D02*
X143455266Y-148666600D01*
X143455266Y-148666600D02*
X143550504Y-148618981D01*
X143550504Y-148618981D02*
X143598123Y-148571361D01*
X143598123Y-148571361D02*
X143645742Y-148476123D01*
X143645742Y-148476123D02*
X143645742Y-147666600D01*
X144645742Y-148666600D02*
X144074314Y-148666600D01*
X144360028Y-148666600D02*
X144360028Y-147666600D01*
X144360028Y-147666600D02*
X144264790Y-147809457D01*
X144264790Y-147809457D02*
X144169552Y-147904695D01*
X144169552Y-147904695D02*
X144074314Y-147952314D01*
X155684700Y-135596114D02*
X156398985Y-135596114D01*
X156398985Y-135596114D02*
X156541842Y-135643733D01*
X156541842Y-135643733D02*
X156637081Y-135738971D01*
X156637081Y-135738971D02*
X156684700Y-135881828D01*
X156684700Y-135881828D02*
X156684700Y-135977066D01*
X156684700Y-134596114D02*
X156684700Y-135167542D01*
X156684700Y-134881828D02*
X155684700Y-134881828D01*
X155684700Y-134881828D02*
X155827557Y-134977066D01*
X155827557Y-134977066D02*
X155922795Y-135072304D01*
X155922795Y-135072304D02*
X155970414Y-135167542D01*
D12*
%TO.C,C_MIC1*%
X140846219Y-132577361D02*
X140846219Y-132296201D01*
X139826219Y-132577361D02*
X139826219Y-132296201D01*
D13*
%TO.C,INMP1*%
X142286219Y-133351781D02*
X142286219Y-138071781D01*
X142286219Y-133351781D02*
X146046219Y-133351781D01*
X142286219Y-138071781D02*
X143416219Y-138071781D01*
X144916219Y-138071781D02*
X146046219Y-138071781D01*
X146046219Y-133351781D02*
X146046219Y-138071781D01*
D10*
X141866219Y-133841781D02*
G75*
G02*
X141666219Y-133841781I-100000J0D01*
G01*
X141666219Y-133841781D02*
G75*
G02*
X141866219Y-133841781I100000J0D01*
G01*
D12*
%TO.C,U1*%
X137336219Y-141131781D02*
X137336219Y-140561781D01*
X137336219Y-143671781D02*
X137336219Y-142651781D01*
X137336219Y-146211781D02*
X137336219Y-145191781D01*
X137336219Y-148751781D02*
X137336219Y-147731781D01*
X137336219Y-151291781D02*
X137336219Y-150271781D01*
X137336219Y-153831781D02*
X137336219Y-152811781D01*
X137336219Y-156371781D02*
X137336219Y-155351781D01*
X137336219Y-158461781D02*
X137336219Y-157891781D01*
X152511219Y-140561781D02*
X137336219Y-140561781D01*
X152511219Y-141131781D02*
X152511219Y-140561781D01*
X152511219Y-143671781D02*
X152511219Y-142651781D01*
X152511219Y-146211781D02*
X152511219Y-145191781D01*
X152511219Y-148751781D02*
X152511219Y-147731781D01*
X152511219Y-151291781D02*
X152511219Y-150271781D01*
X152511219Y-153831781D02*
X152511219Y-152811781D01*
X152511219Y-156371781D02*
X152511219Y-155351781D01*
X152511219Y-158461781D02*
X137336219Y-158461781D01*
X152511219Y-158461781D02*
X152511219Y-157891781D01*
X153951219Y-157891781D02*
X152511219Y-157891781D01*
%TO.C,J1*%
X150419881Y-132202781D02*
X150419881Y-138322781D01*
X150419881Y-138322781D02*
X155139881Y-138322781D01*
X151029881Y-132812781D02*
X151029881Y-137712781D01*
X151029881Y-135162781D02*
X151529881Y-135162781D01*
X151029881Y-135262781D02*
X151529881Y-135262781D01*
X151029881Y-137712781D02*
X154529881Y-137712781D01*
X151529881Y-135162781D02*
X151529881Y-135362781D01*
X151529881Y-135362781D02*
X151029881Y-135362781D01*
X152529881Y-132202781D02*
X152529881Y-132812781D01*
X152529881Y-138322781D02*
X152529881Y-137712781D01*
X153829881Y-132202781D02*
X153829881Y-132812781D01*
X153829881Y-138322781D02*
X153829881Y-137712781D01*
X154529881Y-132812781D02*
X151029881Y-132812781D01*
X154529881Y-134762781D02*
X154529881Y-132812781D01*
X154529881Y-135762781D02*
X155139881Y-135762781D01*
X154529881Y-137712781D02*
X154529881Y-135762781D01*
X155139881Y-132202781D02*
X150419881Y-132202781D01*
X155139881Y-133962781D02*
X155339881Y-133962781D01*
X155139881Y-134762781D02*
X154529881Y-134762781D01*
X155139881Y-138322781D02*
X155139881Y-132202781D01*
X155239881Y-133962781D02*
X155239881Y-133662781D01*
X155339881Y-133662781D02*
X155139881Y-133662781D01*
X155339881Y-133962781D02*
X155339881Y-133662781D01*
X155439881Y-131902781D02*
X154189881Y-131902781D01*
X155439881Y-133152781D02*
X155439881Y-131902781D01*
%TD*%
M02*
