%TF.GenerationSoftware,KiCad,Pcbnew,9.0.6*%
%TF.CreationDate,2026-02-23T14:13:08-08:00*%
%TF.ProjectId,Final Project - Sensor Device,46696e61-6c20-4507-926f-6a656374202d,V1*%
%TF.SameCoordinates,Original*%
%TF.FileFunction,Paste,Top*%
%TF.FilePolarity,Positive*%
%FSLAX46Y46*%
G04 Gerber Fmt 4.6, Leading zero omitted, Abs format (unit mm)*
G04 Created by KiCad (PCBNEW 9.0.6) date 2026-02-23 14:13:08*
%MOMM*%
%LPD*%
G01*
G04 APERTURE LIST*
G04 Aperture macros list*
%AMRoundRect*
0 Rectangle with rounded corners*
0 $1 Rounding radius*
0 $2 $3 $4 $5 $6 $7 $8 $9 X,Y pos of 4 corners*
0 Add a 4 corners polygon primitive as box body*
4,1,4,$2,$3,$4,$5,$6,$7,$8,$9,$2,$3,0*
0 Add four circle primitives for the rounded corners*
1,1,$1+$1,$2,$3*
1,1,$1+$1,$4,$5*
1,1,$1+$1,$6,$7*
1,1,$1+$1,$8,$9*
0 Add four rect primitives between the rounded corners*
20,1,$1+$1,$2,$3,$4,$5,0*
20,1,$1+$1,$4,$5,$6,$7,0*
20,1,$1+$1,$6,$7,$8,$9,0*
20,1,$1+$1,$8,$9,$2,$3,0*%
G04 Aperture macros list end*
%ADD10C,0.010000*%
%ADD11RoundRect,0.225000X0.250000X-0.225000X0.250000X0.225000X-0.250000X0.225000X-0.250000X-0.225000X0*%
%ADD12R,3.150000X1.000000*%
G04 APERTURE END LIST*
D10*
%TO.C,INMP1*%
X143111219Y-134016781D02*
X142561219Y-134016781D01*
X142561219Y-133666781D01*
X143111219Y-133666781D01*
X143111219Y-134016781D01*
G36*
X143111219Y-134016781D02*
G01*
X142561219Y-134016781D01*
X142561219Y-133666781D01*
X143111219Y-133666781D01*
X143111219Y-134016781D01*
G37*
X143111219Y-135066781D02*
X142561219Y-135066781D01*
X142561219Y-134716781D01*
X143111219Y-134716781D01*
X143111219Y-135066781D01*
G36*
X143111219Y-135066781D02*
G01*
X142561219Y-135066781D01*
X142561219Y-134716781D01*
X143111219Y-134716781D01*
X143111219Y-135066781D01*
G37*
X143111219Y-136116781D02*
X142561219Y-136116781D01*
X142561219Y-135766781D01*
X143111219Y-135766781D01*
X143111219Y-136116781D01*
G36*
X143111219Y-136116781D02*
G01*
X142561219Y-136116781D01*
X142561219Y-135766781D01*
X143111219Y-135766781D01*
X143111219Y-136116781D01*
G37*
X143111219Y-137166781D02*
X142561219Y-137166781D01*
X142561219Y-136816781D01*
X143111219Y-136816781D01*
X143111219Y-137166781D01*
G36*
X143111219Y-137166781D02*
G01*
X142561219Y-137166781D01*
X142561219Y-136816781D01*
X143111219Y-136816781D01*
X143111219Y-137166781D01*
G37*
X145771219Y-134016781D02*
X145221219Y-134016781D01*
X145221219Y-133666781D01*
X145771219Y-133666781D01*
X145771219Y-134016781D01*
G36*
X145771219Y-134016781D02*
G01*
X145221219Y-134016781D01*
X145221219Y-133666781D01*
X145771219Y-133666781D01*
X145771219Y-134016781D01*
G37*
X145771219Y-135066781D02*
X145221219Y-135066781D01*
X145221219Y-134716781D01*
X145771219Y-134716781D01*
X145771219Y-135066781D01*
G36*
X145771219Y-135066781D02*
G01*
X145221219Y-135066781D01*
X145221219Y-134716781D01*
X145771219Y-134716781D01*
X145771219Y-135066781D01*
G37*
X145771219Y-136116781D02*
X145221219Y-136116781D01*
X145221219Y-135766781D01*
X145771219Y-135766781D01*
X145771219Y-136116781D01*
G36*
X145771219Y-136116781D02*
G01*
X145221219Y-136116781D01*
X145221219Y-135766781D01*
X145771219Y-135766781D01*
X145771219Y-136116781D01*
G37*
X145771219Y-137166781D02*
X145221219Y-137166781D01*
X145221219Y-136816781D01*
X145771219Y-136816781D01*
X145771219Y-137166781D01*
G36*
X145771219Y-137166781D02*
G01*
X145221219Y-137166781D01*
X145221219Y-136816781D01*
X145771219Y-136816781D01*
X145771219Y-137166781D01*
G37*
X144233219Y-136203781D02*
X144271219Y-136207781D01*
X144309219Y-136213781D01*
X144347219Y-136221781D01*
X144384219Y-136231781D01*
X144421219Y-136242781D01*
X144457219Y-136256781D01*
X144493219Y-136270781D01*
X144528219Y-136287781D01*
X144562219Y-136305781D01*
X144595219Y-136325781D01*
X144627219Y-136347781D01*
X144657219Y-136369781D01*
X144460219Y-136566781D01*
X144443219Y-136555781D01*
X144423219Y-136542781D01*
X144401219Y-136531781D01*
X144380219Y-136521781D01*
X144357219Y-136511781D01*
X144335219Y-136503781D01*
X144312219Y-136495781D01*
X144288219Y-136489781D01*
X144265219Y-136484781D01*
X144241219Y-136480781D01*
X144217219Y-136477781D01*
X144193219Y-136475781D01*
X144168219Y-136474781D01*
X144144219Y-136475781D01*
X144120219Y-136476781D01*
X144096219Y-136479781D01*
X144072219Y-136483781D01*
X144049219Y-136488781D01*
X144025219Y-136494781D01*
X144002219Y-136501781D01*
X143979219Y-136509781D01*
X143957219Y-136518781D01*
X143935219Y-136528781D01*
X143913219Y-136540781D01*
X143893219Y-136552781D01*
X143872219Y-136565781D01*
X143853219Y-136579781D01*
X143834219Y-136594781D01*
X143815219Y-136610781D01*
X143795219Y-136630781D01*
X143775219Y-136650781D01*
X143759219Y-136669781D01*
X143744219Y-136688781D01*
X143730219Y-136707781D01*
X143717219Y-136728781D01*
X143705219Y-136748781D01*
X143693219Y-136770781D01*
X143683219Y-136792781D01*
X143674219Y-136814781D01*
X143666219Y-136837781D01*
X143659219Y-136860781D01*
X143653219Y-136884781D01*
X143648219Y-136907781D01*
X143644219Y-136931781D01*
X143641219Y-136955781D01*
X143640219Y-136979781D01*
X143639219Y-137003781D01*
X143640219Y-137028781D01*
X143642219Y-137052781D01*
X143645219Y-137076781D01*
X143649219Y-137100781D01*
X143654219Y-137123781D01*
X143660219Y-137147781D01*
X143668219Y-137170781D01*
X143676219Y-137192781D01*
X143686219Y-137215781D01*
X143696219Y-137236781D01*
X143707219Y-137258781D01*
X143720219Y-137278781D01*
X143731219Y-137295781D01*
X143730997Y-137295581D01*
X143534219Y-137492781D01*
X143512219Y-137462781D01*
X143490219Y-137430781D01*
X143470219Y-137397781D01*
X143452219Y-137363781D01*
X143435219Y-137328781D01*
X143421219Y-137292781D01*
X143407219Y-137256781D01*
X143396219Y-137219781D01*
X143386219Y-137182781D01*
X143378219Y-137144781D01*
X143372219Y-137106781D01*
X143368219Y-137068781D01*
X143366219Y-137029781D01*
X143366219Y-136991781D01*
X143367219Y-136952781D01*
X143370219Y-136914781D01*
X143375219Y-136876781D01*
X143382219Y-136838781D01*
X143391219Y-136800781D01*
X143402219Y-136763781D01*
X143414219Y-136726781D01*
X143428219Y-136691781D01*
X143444219Y-136655781D01*
X143462219Y-136621781D01*
X143481219Y-136588781D01*
X143502219Y-136555781D01*
X143524219Y-136524781D01*
X143548219Y-136493781D01*
X143573219Y-136464781D01*
X143600219Y-136435781D01*
X143629219Y-136408781D01*
X143658219Y-136383781D01*
X143689219Y-136359781D01*
X143720219Y-136337781D01*
X143753219Y-136316781D01*
X143786219Y-136297781D01*
X143820219Y-136279781D01*
X143856219Y-136263781D01*
X143891219Y-136249781D01*
X143928219Y-136237781D01*
X143965219Y-136226781D01*
X144003219Y-136217781D01*
X144041219Y-136210781D01*
X144079219Y-136205781D01*
X144117219Y-136202781D01*
X144156219Y-136201781D01*
X144194219Y-136201781D01*
X144233219Y-136203781D01*
G36*
X144233219Y-136203781D02*
G01*
X144271219Y-136207781D01*
X144309219Y-136213781D01*
X144347219Y-136221781D01*
X144384219Y-136231781D01*
X144421219Y-136242781D01*
X144457219Y-136256781D01*
X144493219Y-136270781D01*
X144528219Y-136287781D01*
X144562219Y-136305781D01*
X144595219Y-136325781D01*
X144627219Y-136347781D01*
X144657219Y-136369781D01*
X144460219Y-136566781D01*
X144443219Y-136555781D01*
X144423219Y-136542781D01*
X144401219Y-136531781D01*
X144380219Y-136521781D01*
X144357219Y-136511781D01*
X144335219Y-136503781D01*
X144312219Y-136495781D01*
X144288219Y-136489781D01*
X144265219Y-136484781D01*
X144241219Y-136480781D01*
X144217219Y-136477781D01*
X144193219Y-136475781D01*
X144168219Y-136474781D01*
X144144219Y-136475781D01*
X144120219Y-136476781D01*
X144096219Y-136479781D01*
X144072219Y-136483781D01*
X144049219Y-136488781D01*
X144025219Y-136494781D01*
X144002219Y-136501781D01*
X143979219Y-136509781D01*
X143957219Y-136518781D01*
X143935219Y-136528781D01*
X143913219Y-136540781D01*
X143893219Y-136552781D01*
X143872219Y-136565781D01*
X143853219Y-136579781D01*
X143834219Y-136594781D01*
X143815219Y-136610781D01*
X143795219Y-136630781D01*
X143775219Y-136650781D01*
X143759219Y-136669781D01*
X143744219Y-136688781D01*
X143730219Y-136707781D01*
X143717219Y-136728781D01*
X143705219Y-136748781D01*
X143693219Y-136770781D01*
X143683219Y-136792781D01*
X143674219Y-136814781D01*
X143666219Y-136837781D01*
X143659219Y-136860781D01*
X143653219Y-136884781D01*
X143648219Y-136907781D01*
X143644219Y-136931781D01*
X143641219Y-136955781D01*
X143640219Y-136979781D01*
X143639219Y-137003781D01*
X143640219Y-137028781D01*
X143642219Y-137052781D01*
X143645219Y-137076781D01*
X143649219Y-137100781D01*
X143654219Y-137123781D01*
X143660219Y-137147781D01*
X143668219Y-137170781D01*
X143676219Y-137192781D01*
X143686219Y-137215781D01*
X143696219Y-137236781D01*
X143707219Y-137258781D01*
X143720219Y-137278781D01*
X143731219Y-137295781D01*
X143730997Y-137295581D01*
X143534219Y-137492781D01*
X143512219Y-137462781D01*
X143490219Y-137430781D01*
X143470219Y-137397781D01*
X143452219Y-137363781D01*
X143435219Y-137328781D01*
X143421219Y-137292781D01*
X143407219Y-137256781D01*
X143396219Y-137219781D01*
X143386219Y-137182781D01*
X143378219Y-137144781D01*
X143372219Y-137106781D01*
X143368219Y-137068781D01*
X143366219Y-137029781D01*
X143366219Y-136991781D01*
X143367219Y-136952781D01*
X143370219Y-136914781D01*
X143375219Y-136876781D01*
X143382219Y-136838781D01*
X143391219Y-136800781D01*
X143402219Y-136763781D01*
X143414219Y-136726781D01*
X143428219Y-136691781D01*
X143444219Y-136655781D01*
X143462219Y-136621781D01*
X143481219Y-136588781D01*
X143502219Y-136555781D01*
X143524219Y-136524781D01*
X143548219Y-136493781D01*
X143573219Y-136464781D01*
X143600219Y-136435781D01*
X143629219Y-136408781D01*
X143658219Y-136383781D01*
X143689219Y-136359781D01*
X143720219Y-136337781D01*
X143753219Y-136316781D01*
X143786219Y-136297781D01*
X143820219Y-136279781D01*
X143856219Y-136263781D01*
X143891219Y-136249781D01*
X143928219Y-136237781D01*
X143965219Y-136226781D01*
X144003219Y-136217781D01*
X144041219Y-136210781D01*
X144079219Y-136205781D01*
X144117219Y-136202781D01*
X144156219Y-136201781D01*
X144194219Y-136201781D01*
X144233219Y-136203781D01*
G37*
X144820219Y-136540781D02*
X144842219Y-136572781D01*
X144862219Y-136605781D01*
X144880219Y-136639781D01*
X144897219Y-136674781D01*
X144911219Y-136710781D01*
X144925219Y-136746781D01*
X144936219Y-136783781D01*
X144946219Y-136820781D01*
X144954219Y-136858781D01*
X144960219Y-136896781D01*
X144964219Y-136934781D01*
X144966219Y-136973781D01*
X144966219Y-137011781D01*
X144965219Y-137050781D01*
X144962219Y-137088781D01*
X144957219Y-137126781D01*
X144950219Y-137164781D01*
X144941219Y-137202781D01*
X144930219Y-137239781D01*
X144918219Y-137276781D01*
X144904219Y-137311781D01*
X144888219Y-137347781D01*
X144870219Y-137381781D01*
X144851219Y-137414781D01*
X144830219Y-137447781D01*
X144808219Y-137478781D01*
X144784219Y-137509781D01*
X144759219Y-137538781D01*
X144732219Y-137567781D01*
X144703219Y-137594781D01*
X144674219Y-137619781D01*
X144643219Y-137643781D01*
X144612219Y-137665781D01*
X144579219Y-137686781D01*
X144546219Y-137705781D01*
X144512219Y-137723781D01*
X144476219Y-137739781D01*
X144441219Y-137753781D01*
X144404219Y-137765781D01*
X144367219Y-137776781D01*
X144329219Y-137785781D01*
X144291219Y-137792781D01*
X144253219Y-137797781D01*
X144215219Y-137800781D01*
X144176219Y-137801781D01*
X144138219Y-137801781D01*
X144099219Y-137799781D01*
X144061219Y-137795781D01*
X144023219Y-137789781D01*
X143985219Y-137781781D01*
X143948219Y-137771781D01*
X143911219Y-137760781D01*
X143875219Y-137746781D01*
X143839219Y-137732781D01*
X143804219Y-137715781D01*
X143770219Y-137697781D01*
X143737219Y-137677781D01*
X143705219Y-137655781D01*
X143675219Y-137633781D01*
X143872219Y-137436781D01*
X143889219Y-137447781D01*
X143909219Y-137460781D01*
X143931219Y-137471781D01*
X143952219Y-137481781D01*
X143975219Y-137491781D01*
X143997219Y-137499781D01*
X144020219Y-137507781D01*
X144044219Y-137513781D01*
X144067219Y-137518781D01*
X144091219Y-137522781D01*
X144115219Y-137525781D01*
X144139219Y-137527781D01*
X144164219Y-137528781D01*
X144188219Y-137527781D01*
X144212219Y-137526781D01*
X144236219Y-137523781D01*
X144260219Y-137519781D01*
X144283219Y-137514781D01*
X144307219Y-137508781D01*
X144330219Y-137501781D01*
X144353219Y-137493781D01*
X144375219Y-137484781D01*
X144397219Y-137474781D01*
X144419219Y-137462781D01*
X144439219Y-137450781D01*
X144460219Y-137437781D01*
X144479219Y-137423781D01*
X144498219Y-137408781D01*
X144517219Y-137392781D01*
X144537219Y-137372781D01*
X144557219Y-137352781D01*
X144573219Y-137333781D01*
X144588219Y-137314781D01*
X144602219Y-137295781D01*
X144615219Y-137274781D01*
X144627219Y-137254781D01*
X144639219Y-137232781D01*
X144649219Y-137210781D01*
X144658219Y-137188781D01*
X144666219Y-137165781D01*
X144673219Y-137142781D01*
X144679219Y-137118781D01*
X144684219Y-137095781D01*
X144688219Y-137071781D01*
X144691219Y-137047781D01*
X144692219Y-137023781D01*
X144693219Y-136999781D01*
X144692219Y-136974781D01*
X144690219Y-136950781D01*
X144687219Y-136926781D01*
X144683219Y-136902781D01*
X144678219Y-136879781D01*
X144672219Y-136855781D01*
X144664219Y-136832781D01*
X144656219Y-136810781D01*
X144646219Y-136787781D01*
X144636219Y-136766781D01*
X144625219Y-136744781D01*
X144612219Y-136724781D01*
X144601219Y-136707781D01*
X144601441Y-136707981D01*
X144798219Y-136510781D01*
X144820219Y-136540781D01*
G36*
X144820219Y-136540781D02*
G01*
X144842219Y-136572781D01*
X144862219Y-136605781D01*
X144880219Y-136639781D01*
X144897219Y-136674781D01*
X144911219Y-136710781D01*
X144925219Y-136746781D01*
X144936219Y-136783781D01*
X144946219Y-136820781D01*
X144954219Y-136858781D01*
X144960219Y-136896781D01*
X144964219Y-136934781D01*
X144966219Y-136973781D01*
X144966219Y-137011781D01*
X144965219Y-137050781D01*
X144962219Y-137088781D01*
X144957219Y-137126781D01*
X144950219Y-137164781D01*
X144941219Y-137202781D01*
X144930219Y-137239781D01*
X144918219Y-137276781D01*
X144904219Y-137311781D01*
X144888219Y-137347781D01*
X144870219Y-137381781D01*
X144851219Y-137414781D01*
X144830219Y-137447781D01*
X144808219Y-137478781D01*
X144784219Y-137509781D01*
X144759219Y-137538781D01*
X144732219Y-137567781D01*
X144703219Y-137594781D01*
X144674219Y-137619781D01*
X144643219Y-137643781D01*
X144612219Y-137665781D01*
X144579219Y-137686781D01*
X144546219Y-137705781D01*
X144512219Y-137723781D01*
X144476219Y-137739781D01*
X144441219Y-137753781D01*
X144404219Y-137765781D01*
X144367219Y-137776781D01*
X144329219Y-137785781D01*
X144291219Y-137792781D01*
X144253219Y-137797781D01*
X144215219Y-137800781D01*
X144176219Y-137801781D01*
X144138219Y-137801781D01*
X144099219Y-137799781D01*
X144061219Y-137795781D01*
X144023219Y-137789781D01*
X143985219Y-137781781D01*
X143948219Y-137771781D01*
X143911219Y-137760781D01*
X143875219Y-137746781D01*
X143839219Y-137732781D01*
X143804219Y-137715781D01*
X143770219Y-137697781D01*
X143737219Y-137677781D01*
X143705219Y-137655781D01*
X143675219Y-137633781D01*
X143872219Y-137436781D01*
X143889219Y-137447781D01*
X143909219Y-137460781D01*
X143931219Y-137471781D01*
X143952219Y-137481781D01*
X143975219Y-137491781D01*
X143997219Y-137499781D01*
X144020219Y-137507781D01*
X144044219Y-137513781D01*
X144067219Y-137518781D01*
X144091219Y-137522781D01*
X144115219Y-137525781D01*
X144139219Y-137527781D01*
X144164219Y-137528781D01*
X144188219Y-137527781D01*
X144212219Y-137526781D01*
X144236219Y-137523781D01*
X144260219Y-137519781D01*
X144283219Y-137514781D01*
X144307219Y-137508781D01*
X144330219Y-137501781D01*
X144353219Y-137493781D01*
X144375219Y-137484781D01*
X144397219Y-137474781D01*
X144419219Y-137462781D01*
X144439219Y-137450781D01*
X144460219Y-137437781D01*
X144479219Y-137423781D01*
X144498219Y-137408781D01*
X144517219Y-137392781D01*
X144537219Y-137372781D01*
X144557219Y-137352781D01*
X144573219Y-137333781D01*
X144588219Y-137314781D01*
X144602219Y-137295781D01*
X144615219Y-137274781D01*
X144627219Y-137254781D01*
X144639219Y-137232781D01*
X144649219Y-137210781D01*
X144658219Y-137188781D01*
X144666219Y-137165781D01*
X144673219Y-137142781D01*
X144679219Y-137118781D01*
X144684219Y-137095781D01*
X144688219Y-137071781D01*
X144691219Y-137047781D01*
X144692219Y-137023781D01*
X144693219Y-136999781D01*
X144692219Y-136974781D01*
X144690219Y-136950781D01*
X144687219Y-136926781D01*
X144683219Y-136902781D01*
X144678219Y-136879781D01*
X144672219Y-136855781D01*
X144664219Y-136832781D01*
X144656219Y-136810781D01*
X144646219Y-136787781D01*
X144636219Y-136766781D01*
X144625219Y-136744781D01*
X144612219Y-136724781D01*
X144601219Y-136707781D01*
X144601441Y-136707981D01*
X144798219Y-136510781D01*
X144820219Y-136540781D01*
G37*
%TD*%
D11*
%TO.C,C_MIC1*%
X140336219Y-131661781D03*
X140336219Y-133211781D03*
%TD*%
D12*
%TO.C,U1*%
X152436219Y-157131781D03*
X152436219Y-154591781D03*
X152436219Y-152051781D03*
X152436219Y-149511781D03*
X152436219Y-146971781D03*
X152436219Y-144431781D03*
X152436219Y-141891781D03*
X136411219Y-141891781D03*
X136411219Y-144431781D03*
X136411219Y-146971781D03*
X136411219Y-149511781D03*
X136411219Y-152051781D03*
X136411219Y-154591781D03*
X136411219Y-157131781D03*
%TD*%
M02*
